<?xml version="1.0" encoding="UTF-8" standalone="no"?>
<!-- Creator: CorelDRAW -->

<svg
   xml:space="preserve"
   width="4.1092148mm"
   height="4.1092148mm"
   version="1.1"
   style="clip-rule:evenodd;fill-rule:evenodd;image-rendering:optimizeQuality;shape-rendering:geometricPrecision;text-rendering:geometricPrecision"
   viewBox="0 0 139.61902 139.61902"
   id="svg101"
   sodipodi:docname="Ball.svg"
   inkscape:version="1.1.2 (b8e25be833, 2022-02-05)"
   xmlns:inkscape="http://www.inkscape.org/namespaces/inkscape"
   xmlns:sodipodi="http://sodipodi.sourceforge.net/DTD/sodipodi-0.dtd"
   xmlns="http://www.w3.org/2000/svg"
   xmlns:svg="http://www.w3.org/2000/svg"><sodipodi:namedview
   id="namedview103"
   pagecolor="#ffffff"
   bordercolor="#999999"
   borderopacity="1"
   inkscape:pageshadow="0"
   inkscape:pageopacity="0"
   inkscape:pagecheckerboard="0"
   inkscape:document-units="mm"
   showgrid="false"
   inkscape:zoom="23.552437"
   inkscape:cx="5.540828"
   inkscape:cy="12.461556"
   inkscape:window-width="1920"
   inkscape:window-height="1001"
   inkscape:window-x="-9"
   inkscape:window-y="-9"
   inkscape:window-maximized="1"
   inkscape:current-layer="Capa_x0020_1" />
 <defs
   id="defs4">
  <style
   type="text/css"
   id="style2">
   <![CDATA[
    .fil3 {fill:none}
    .fil0 {fill:#443463}
    .fil1 {fill:#5A63B1}
    .fil2 {fill:#F4F4F4}
    .fil4 {fill:#F4F4F4;fill-rule:nonzero}
   ]]>
  </style>
 </defs>
 <g
   id="Capa_x0020_1"
   inkscape:label="Capa 1"
   inkscape:groupmode="layer"
   transform="translate(-830.56048,-830.56048)">
  <metadata
   id="CorelCorpID_0Corel-Layer" />
  <g
   id="Ball"
   transform="matrix(0.07753425,0,0,0.07753425,830.56048,830.56048)">
   <circle
   class="fil0"
   cx="900.37"
   cy="900.37"
   r="900.37"
   id="circle7" />
   <circle
   class="fil1"
   cx="900.37"
   cy="900.37"
   r="789.65997"
   id="circle9" />
   <g
   id="g67">
    <g
   id="g23">
     <g
   id="g13">
      <path
   class="fil2"
   d="m 949.55,193.31 c 0,0 -0.67,72.34 -0.67,72.35 -0.25,26.97 -22.31,48.63 -49.28,48.38 -26.97,-0.25 -48.63,-22.31 -48.38,-49.28 0,-0.01 0.67,-72.34 0.67,-72.35 0.25,-26.97 22.31,-48.63 49.28,-48.38 26.97,0.25 48.63,22.31 48.38,49.28 z"
   id="path11" />
     </g>
     <line
   class="fil3"
   x1="900.71997"
   y1="192.86"
   x2="900.04999"
   y2="265.20999"
   id="line15" />
     <path
   class="fil2"
   d="m 394.16,394.16 c 17.12,-17.22 46.49,6.53 79.16,37.06 41.02,38.34 75.63,81.65 87.25,95.9 36.56,44.81 53.78,88.57 57.79,91.24 -10.68,-7.33 -43.5,-22.42 -83.71,-50.27 -35.65,-24.69 -75.34,-61.6 -104.84,-92.53 -35.1,-36.8 -52.78,-64.18 -35.66,-81.4 z"
   id="path17" />
     <path
   class="fil2"
   d="m 279.97,643.4 c 45.79,64.65 45.06,55.98 126.93,52.58 C 354.54,638.4 363.92,634.16 279.97,643.4 Z"
   id="path19" />
     <path
   class="fil2"
   d="m 643.41,279.98 c -13.33,78.1 -7.73,71.45 52.57,126.93 3.69,-77.74 13.33,-74.11 -52.57,-126.93 z"
   id="path21" />
    </g>
    <g
   id="g37">
     <g
   id="g27">
      <path
   class="fil2"
   d="m 193.31,851.2 c 0,0 72.34,0.67 72.35,0.67 26.97,0.25 48.63,22.31 48.38,49.28 -0.25,26.97 -22.31,48.63 -49.28,48.38 -0.01,0 -72.34,-0.67 -72.35,-0.67 -26.97,-0.25 -48.63,-22.31 -48.38,-49.28 0.25,-26.97 22.31,-48.63 49.28,-48.38 z"
   id="path25" />
     </g>
     <line
   class="fil3"
   x1="192.86"
   y1="900.03003"
   x2="265.20999"
   y2="900.70001"
   id="line29" />
     <path
   class="fil2"
   d="m 394.16,1406.59 c -17.22,-17.12 6.53,-46.49 37.06,-79.16 38.34,-41.02 81.65,-75.63 95.9,-87.25 44.81,-36.56 88.57,-53.78 91.24,-57.79 -7.33,10.68 -22.42,43.5 -50.27,83.71 -24.69,35.64 -61.6,75.34 -92.53,104.84 -36.8,35.1 -64.17,52.78 -81.4,35.66 z"
   id="path31" />
     <path
   class="fil2"
   d="m 643.4,1520.78 c 64.65,-45.79 55.98,-45.06 52.58,-126.93 -57.58,52.36 -61.82,42.98 -52.58,126.93 z"
   id="path33" />
     <path
   class="fil2"
   d="m 279.97,1157.35 c 78.1,13.33 71.45,7.73 126.93,-52.58 -77.74,-3.69 -74.11,-13.33 -126.93,52.58 z"
   id="path35" />
    </g>
    <g
   id="g51">
     <g
   id="g41">
      <path
   class="fil2"
   d="m 851.2,1607.44 c 0,0 0.67,-72.34 0.67,-72.34 0.25,-26.97 22.31,-48.63 49.28,-48.38 26.96,0.25 48.63,22.31 48.38,49.28 0,0 -0.67,72.34 -0.67,72.35 -0.25,26.97 -22.31,48.63 -49.28,48.38 -26.97,-0.25 -48.63,-22.31 -48.38,-49.28 z"
   id="path39" />
     </g>
     <line
   class="fil3"
   x1="900.03003"
   y1="1607.89"
   x2="900.69"
   y2="1535.54"
   id="line43" />
     <path
   class="fil2"
   d="m 1406.58,1406.59 c -17.12,17.22 -46.49,-6.53 -79.16,-37.06 -41.02,-38.34 -75.63,-81.65 -87.26,-95.9 -36.56,-44.81 -53.78,-88.57 -57.79,-91.24 10.68,7.32 43.5,22.42 83.71,50.27 35.64,24.69 75.34,61.6 104.84,92.53 35.1,36.8 52.78,64.17 35.66,81.4 z"
   id="path45" />
     <path
   class="fil2"
   d="m 1520.78,1157.36 c -45.79,-64.65 -45.06,-55.98 -126.93,-52.58 52.36,57.58 42.97,61.83 126.93,52.58 z"
   id="path47" />
     <path
   class="fil2"
   d="m 1157.34,1520.78 c 13.33,-78.1 7.73,-71.45 -52.58,-126.93 -3.69,77.74 -13.33,74.11 52.58,126.93 z"
   id="path49" />
    </g>
    <g
   id="g65">
     <g
   id="g55">
      <path
   class="fil2"
   d="m 1607.44,949.56 c 0,0 -72.34,-0.67 -72.35,-0.67 -26.96,-0.25 -48.63,-22.31 -48.38,-49.28 0.25,-26.97 22.31,-48.63 49.28,-48.38 0,0 72.34,0.67 72.35,0.67 26.97,0.25 48.63,22.31 48.38,49.28 -0.25,26.97 -22.31,48.63 -49.28,48.38 z"
   id="path53" />
     </g>
     <line
   class="fil3"
   x1="1607.89"
   y1="900.71997"
   x2="1535.54"
   y2="900.04999"
   id="line57" />
     <path
   class="fil2"
   d="m 1406.59,394.17 c 17.22,17.12 -6.53,46.49 -37.06,79.16 -38.34,41.02 -81.65,75.63 -95.9,87.25 -44.81,36.56 -88.57,53.78 -91.24,57.79 7.32,-10.68 22.42,-43.5 50.27,-83.71 24.69,-35.65 61.6,-75.34 92.53,-104.84 36.8,-35.1 64.17,-52.78 81.4,-35.66 z"
   id="path59" />
     <path
   class="fil2"
   d="m 1157.35,279.97 c -64.65,45.79 -55.98,45.06 -52.58,126.93 57.58,-52.36 61.83,-42.98 52.58,-126.93 z"
   id="path61" />
     <path
   class="fil2"
   d="m 1520.77,643.41 c -78.1,-13.33 -71.45,-7.73 -126.93,52.57 77.74,3.69 74.11,13.33 126.93,-52.57 z"
   id="path63" />
    </g>
   </g>
   <path
   class="fil4"
   d="m 868.31,883.08 c 0,-21.07 14.36,-38.15 32.06,-38.15 17.71,0 32.06,17.08 32.06,38.15 v 34.59 c 0,21.07 -14.36,38.15 -32.06,38.15 -17.71,0 -32.06,-17.08 -32.06,-38.15 z"
   id="path69" />
   <g
   id="g83">
    <g
   id="g73">
     <path
   class="fil2"
   d="m 931.14,521.97 c -27.08,240.09 -155.2,365.05 -347.98,416.12 -17.5,2.56 -33.44,-12.24 -35.6,-33.07 -2.15,-20.83 10.29,-39.79 27.79,-42.36 151.93,-40.4 272.44,-148.83 294.24,-340.7 0,-20.22 13.78,-36.61 30.77,-36.61 17,0 30.77,16.39 30.77,36.61 z"
   id="path71" />
    </g>
    <path
   class="fil3"
   d="m 900.37,521.97 c 0,183.33 -172.31,356.6 -321.11,378.41"
   id="path75" />
    <g
   id="g79">
     <path
   class="fil2"
   d="m 869.6,521.97 c 27.08,240.09 155.19,365.05 347.98,416.12 17.5,2.56 33.44,-12.24 35.6,-33.07 2.15,-20.83 -10.29,-39.79 -27.79,-42.36 -151.93,-40.4 -272.44,-148.83 -294.24,-340.7 0,-20.22 -13.77,-36.61 -30.77,-36.61 -17,0 -30.77,16.39 -30.77,36.61 z"
   id="path77" />
    </g>
    <path
   class="fil3"
   d="m 900.37,521.97 c 0,183.33 172.3,356.6 321.11,378.41"
   id="path81" />
   </g>
   <g
   id="g97">
    <g
   id="g87">
     <path
   class="fil2"
   d="m 869.6,1278.78 c 27.08,-240.09 155.19,-365.05 347.98,-416.12 17.5,-2.56 33.44,12.24 35.6,33.07 2.15,20.83 -10.29,39.79 -27.79,42.36 -151.93,40.4 -272.44,148.83 -294.24,340.7 0,20.22 -13.77,36.61 -30.77,36.61 -17,0 -30.77,-16.39 -30.77,-36.61 z"
   id="path85" />
    </g>
    <path
   class="fil3"
   d="m 900.37,1278.78 c 0,-183.33 172.3,-356.6 321.11,-378.41"
   id="path89" />
    <g
   id="g93">
     <path
   class="fil2"
   d="M 931.14,1278.78 C 904.06,1038.69 775.94,913.73 583.16,862.66 c -17.5,-2.56 -33.44,12.24 -35.6,33.07 -2.15,20.83 10.29,39.79 27.79,42.36 151.93,40.4 272.44,148.83 294.24,340.7 0,20.22 13.78,36.61 30.77,36.61 17,0 30.77,-16.39 30.77,-36.61 z"
   id="path91" />
    </g>
    <path
   class="fil3"
   d="m 900.37,1278.78 c 0,-183.33 -172.31,-356.6 -321.11,-378.41"
   id="path95" />
   </g>
  </g>
 </g>
</svg>
