<?xml version="1.0" encoding="UTF-8" standalone="no"?>
<!-- Creator: CorelDRAW -->

<svg
   xml:space="preserve"
   width="14.106209mm"
   height="1.0629354mm"
   version="1.1"
   style="clip-rule:evenodd;fill-rule:evenodd;image-rendering:optimizeQuality;shape-rendering:geometricPrecision;text-rendering:geometricPrecision"
   viewBox="0 0 747.00172 56.288738"
   id="svg43"
   sodipodi:docname="centro.svg"
   inkscape:version="1.1.2 (b8e25be833, 2022-02-05)"
   xmlns:inkscape="http://www.inkscape.org/namespaces/inkscape"
   xmlns:sodipodi="http://sodipodi.sourceforge.net/DTD/sodipodi-0.dtd"
   xmlns="http://www.w3.org/2000/svg"
   xmlns:svg="http://www.w3.org/2000/svg"><sodipodi:namedview
   id="namedview45"
   pagecolor="#ffffff"
   bordercolor="#999999"
   borderopacity="1"
   inkscape:pageshadow="0"
   inkscape:pageopacity="0"
   inkscape:pagecheckerboard="0"
   inkscape:document-units="mm"
   showgrid="false"
   inkscape:zoom="14.838699"
   inkscape:cx="49.768514"
   inkscape:cy="5.4250039"
   inkscape:window-width="1920"
   inkscape:window-height="1001"
   inkscape:window-x="-9"
   inkscape:window-y="-9"
   inkscape:window-maximized="1"
   inkscape:current-layer="Capa_x0020_1" />
 <defs
   id="defs4">
  <style
   type="text/css"
   id="style2">
   <![CDATA[
    .fil1 {fill:#F4F4F4}
    .fil0 {fill:#F4F4F4;fill-rule:nonzero}
   ]]>
  </style>
 </defs>
 <g
   id="Capa_x0020_1"
   inkscape:label="Capa 1"
   inkscape:groupmode="layer"
   transform="translate(-2679.0928,-201.885)">
  <metadata
   id="CorelCorpID_0Corel-Layer" />
  <g
   id="_2911663850160"
   transform="matrix(0.12235584,0,0,0.12235584,2679.0923,201.88393)">
   <g
   id="g13">
    <path
   class="fil0"
   d="m 177.82,274.89 c 121.44,49.69 354.9,-10.99 456.49,-75.18 155.5,-97.54 400.78,-163.45 488.36,44.63 7.9,19.02 -1.12,40.85 -20.14,48.75 -19.02,7.9 -40.85,-1.12 -48.75,-20.14 C 945.67,90.95 731.94,241.57 622.22,310.39 516.19,379.33 397.77,415.87 257.76,419.91 125.67,423.72 -26.95,339.61 4.05,214.29 c 11.13,-45.01 70.91,-50.5 96.38,-12.12 16.57,24.96 35.83,55.71 77.38,72.72 z"
   id="path7" />
    <path
   class="fil1"
   d="M 336.97,133.63 C 386.7,175.8 589.74,441.4 603.64,460.05 553.66,423.63 519.3,405.78 482.9,372.03 426.12,319.4 375.26,246.88 336.56,149.69 c -0.95,-2.38 -9.1,-24.14 0.41,-16.06 z"
   id="path9" />
    <path
   class="fil1"
   d="M 735.66,422.69 C 644.58,280.16 610.55,233.14 590.27,164.11 575.71,114.55 558.76,-3.06 562.09,0.07 683.17,113.71 685.91,281.71 735.66,422.69 Z"
   id="path11" />
   </g>
   <path
   class="fil1"
   d="m 3282.27,164.48 c -17.89,45.04 -183.02,247.59 -229.67,247.16 -46.65,0.43 -211.78,-202.13 -229.67,-247.16 -27.51,-69.24 486.86,-69.24 459.35,0 z"
   id="path15" />
   <g
   id="g23">
    <ellipse
   class="fil1"
   cx="1471.54"
   cy="262.10001"
   rx="111.78"
   ry="94.32"
   id="ellipse17" />
    <ellipse
   class="fil1"
   cx="1973.6899"
   cy="262.10001"
   rx="111.78"
   ry="94.32"
   id="ellipse19" />
    <ellipse
   class="fil1"
   cx="2475.8401"
   cy="262.10001"
   rx="111.78"
   ry="94.32"
   id="ellipse21" />
   </g>
   <g
   id="g31">
    <path
   class="fil0"
   d="m 5927.37,274.89 c -121.44,49.69 -354.9,-10.99 -456.49,-75.18 -155.5,-97.54 -400.78,-163.45 -488.36,44.63 -7.9,19.02 1.12,40.85 20.14,48.75 19.02,7.9 40.85,-1.12 48.75,-20.14 108.11,-182 321.84,-31.38 431.56,37.44 106.03,68.94 224.45,105.48 364.46,109.52 132.09,3.81 284.71,-80.3 253.71,-205.62 -11.13,-45.01 -70.91,-50.5 -96.38,-12.12 -16.57,24.96 -35.83,55.71 -77.38,72.72 z"
   id="path25" />
    <path
   class="fil1"
   d="m 5768.22,133.63 c -49.73,42.17 -252.77,307.77 -266.67,326.42 49.98,-36.42 84.34,-54.27 120.74,-88.02 56.78,-52.63 107.64,-125.15 146.34,-222.34 0.95,-2.38 9.1,-24.14 -0.41,-16.06 z"
   id="path27" />
    <path
   class="fil1"
   d="m 5369.53,422.69 c 91.08,-142.53 125.11,-189.55 145.39,-258.58 14.56,-49.56 31.51,-167.17 28.18,-164.04 -121.08,113.64 -123.82,281.64 -173.57,422.62 z"
   id="path29" />
   </g>
   <g
   id="g39">
    <ellipse
   class="fil1"
   cx="4633.6499"
   cy="262.10001"
   rx="111.78"
   ry="94.32"
   id="ellipse33" />
    <ellipse
   class="fil1"
   cx="4131.5"
   cy="262.10001"
   rx="111.78"
   ry="94.32"
   id="ellipse35" />
    <ellipse
   class="fil1"
   cx="3629.3501"
   cy="262.10001"
   rx="111.78"
   ry="94.32"
   id="ellipse37" />
   </g>
  </g>
 </g>
</svg>
