<?xml version="1.0" encoding="UTF-8" standalone="no"?>
<!-- Creator: CorelDRAW -->

<svg
   xml:space="preserve"
   width="7.7875776mm"
   height="1.9739443mm"
   version="1.1"
   style="clip-rule:evenodd;fill-rule:evenodd;image-rendering:optimizeQuality;shape-rendering:geometricPrecision;text-rendering:geometricPrecision"
   viewBox="0 0 1661.2574 421.08381"
   id="svg65"
   sodipodi:docname="EsquinaHockey.svg"
   inkscape:version="1.1.2 (b8e25be833, 2022-02-05)"
   xmlns:inkscape="http://www.inkscape.org/namespaces/inkscape"
   xmlns:sodipodi="http://sodipodi.sourceforge.net/DTD/sodipodi-0.dtd"
   xmlns="http://www.w3.org/2000/svg"
   xmlns:svg="http://www.w3.org/2000/svg"><sodipodi:namedview
   id="namedview67"
   pagecolor="#ffffff"
   bordercolor="#999999"
   borderopacity="1"
   inkscape:pageshadow="0"
   inkscape:pageopacity="0"
   inkscape:pagecheckerboard="0"
   inkscape:document-units="mm"
   showgrid="false"
   inkscape:zoom="18.953277"
   inkscape:cx="15.168881"
   inkscape:cy="4.300048"
   inkscape:window-width="1920"
   inkscape:window-height="1001"
   inkscape:window-x="-9"
   inkscape:window-y="-9"
   inkscape:window-maximized="1"
   inkscape:current-layer="Capa_x0020_1" />
 <defs
   id="defs7">
  <style
   type="text/css"
   id="style2">
   <![CDATA[
    .fil3 {fill:none}
    .fil2 {fill:#84151D}
    .fil1 {fill:#B81403}
    .fil4 {fill:#F4F4F4}
    .fil0 {fill:#F71C06}
   ]]>
  </style>
   <clipPath
   id="id0">
    <path
   d="M 46864.59,11878.93 V 0 H 5.01 0 v 3741.65 h 10.58 43112.36 v 8137.28 z"
   id="path4" />
   </clipPath>
 </defs>
 <g
   id="Capa_x0020_1"
   inkscape:label="Capa 1"
   inkscape:groupmode="layer"
   transform="translate(-22601.667,-5728.9246)">
  <metadata
   id="CorelCorpID_0Corel-Layer" />
  <polygon
   id="_3"
   class="fil0"
   points="43122.94,3741.65 43122.94,11878.93 46864.59,11878.93 46864.59,0 5.01,0 0,0 0,3741.65 10.58,3741.65 "
   transform="matrix(0.03544803,0,0,0.03544803,22601.667,5728.9226)" />
  <g
   clip-path="url(#id0)"
   id="g35"
   transform="matrix(0.03544803,0,0,0.03544803,22601.667,5728.9226)">
   <g
   id="_2497765457616">
    <polygon
   id="_1"
   class="fil1"
   points="-10934.35,4845.76 15099.53,4845.76 17369.13,-376.17 -13203.95,-376.17 " />
    <polygon
   class="fil2"
   points="-6373.03,4845.76 9192.75,4845.76 11206.27,-376.17 -8386.55,-376.17 "
   id="polygon12" />
    <path
   class="fil2"
   d="m 9880.88,4158.22 320.49,20.61 c 327.55,-766.74 1795.78,-4131.79 1942.71,-4565.11 l -427.67,10.11 c -411.67,618.29 -1552.32,3684.1 -1835.54,4534.4 z m 1063.64,73.47 371.95,19.41 c 240.63,-509.86 927.71,-2258.26 1160.87,-2776.67 167.86,-373.08 650.89,-1481.81 728.96,-1850.22 l -331.12,3.5 c -434.04,952.12 -1455.08,3381.76 -1930.66,4603.98 z"
   id="path14" />
    <path
   class="fil1"
   d="m 15931.2,4158.22 350.93,20.61 c 358.68,-766.74 1966.39,-4131.79 2127.3,-4565.11 l -468.3,10.11 c -450.79,618.29 -1699.81,3684.1 -2009.93,4534.4 z m 1164.69,73.47 407.27,19.41 c 263.49,-509.86 1015.86,-2258.26 1271.18,-2776.67 183.82,-373.08 712.73,-1481.81 798.23,-1850.22 l -362.58,3.5 c -475.28,952.12 -1593.34,3381.76 -2114.1,4603.98 z"
   id="path16" />
    <polygon
   class="fil1"
   points="34173.67,3958.28 47402.95,3958.28 47402.95,-1263.65 36445.09,-1263.65 "
   id="polygon18" />
    <polygon
   class="fil2"
   points="42029.67,-1263.65 48166.08,-1263.65 48166.08,3958.28 40016.15,3958.28 "
   id="polygon20" />
    <polygon
   class="fil1"
   points="42944.15,10561.97 42944.15,-653.49 48166.08,-653.49 48166.08,8290.55 "
   id="polygon22" />
    <polygon
   class="fil2"
   points="42944.15,6787.39 42944.15,-633.67 42944.15,-653.49 48166.08,-653.49 48166.08,-651.18 48166.08,4773.87 "
   id="polygon24" />
    <path
   class="fil1"
   d="m 31883.48,4158.22 350.93,20.61 c 358.7,-766.74 1966.41,-4131.79 2127.3,-4565.11 l -468.28,10.11 c -450.81,618.29 -1699.83,3684.1 -2009.95,4534.4 z m 1164.69,73.47 407.27,19.41 c 263.49,-509.86 1015.86,-2258.26 1271.18,-2776.67 183.82,-373.08 712.73,-1481.81 798.23,-1850.22 l -362.58,3.5 c -475.28,952.12 -1593.34,3381.76 -2114.1,4603.98 z"
   id="path26" />
    <path
   class="fil2"
   d="m 37800.3,4158.22 320.47,20.61 c 327.58,-766.74 1795.8,-4131.79 1942.71,-4565.11 l -427.64,10.11 c -411.69,618.29 -1552.34,3684.1 -1835.54,4534.4 z m 1063.64,73.47 371.93,19.41 c 240.63,-509.86 927.71,-2258.26 1160.87,-2776.67 167.88,-373.08 650.89,-1481.81 728.98,-1850.22 l -331.14,3.5 c -434.04,952.12 -1455.08,3381.76 -1930.64,4603.98 z"
   id="path28" />
    <path
   class="fil2"
   d="m 47241.51,5752.78 20.61,320.47 c -766.74,327.58 -4131.79,1795.8 -4565.11,1942.71 l 10.11,-427.64 c 618.29,-411.69 3684.1,-1552.34 4534.4,-1835.54 z m 73.47,1063.64 19.41,371.93 c -509.86,240.63 -2258.26,927.71 -2776.67,1160.87 -373.08,167.88 -1481.81,650.89 -1850.22,728.98 l 3.5,-331.14 c 952.12,-434.04 3381.76,-1455.08 4603.98,-1930.64 z"
   id="path30" />
    <path
   class="fil1"
   d="m 47266.76,9272.04 20.61,350.93 c -766.74,358.7 -4131.79,1966.41 -4565.11,2127.3 l 10.11,-468.28 c 618.29,-450.81 3684.1,-1699.83 4534.4,-2009.95 z m 73.47,1164.69 19.41,407.27 c -509.86,263.49 -2258.26,1015.86 -2776.67,1271.18 -373.08,183.82 -1481.81,712.73 -1850.22,798.23 l 3.5,-362.58 c 952.12,-475.28 3381.76,-1593.34 4603.98,-2114.1 z"
   id="path32" />
   </g>
  </g>
  <polygon
   class="fil3"
   points="43122.94,3741.65 43122.94,11878.93 46864.59,11878.93 46864.59,0 5.01,0 0,0 0,3741.65 10.58,3741.65 "
   id="polygon37"
   transform="matrix(0.03544803,0,0,0.03544803,22601.667,5728.9226)" />
  <g
   id="_2497765394880"
   transform="matrix(0.03544803,0,0,0.03544803,22601.667,5728.9226)">
   <g
   id="g45">
    <path
   class="fil4"
   d="m 46079.57,797.39 c -2452.34,1586.94 -862.48,92.47 -2045.68,2041.27 1908.26,-1129.54 464.66,398.12 2045.68,-2041.27 z"
   id="path39" />
    <path
   class="fil4"
   d="m 43992.67,411.86 c 419.45,2384.61 448.74,724.22 -86.8,2426.78 -450.6,-1703.58 -499.75,-143.95 86.8,-2426.78 z"
   id="path41" />
    <path
   class="fil4"
   d="m 46462.2,2975.34 c -2366.26,-512.93 -706.01,-476.88 -2428.32,-8.72 1684.53,517.24 124.17,505.02 2428.32,8.72 z"
   id="path43" />
   </g>
   <g
   id="g53">
    <ellipse
   class="fil4"
   cx="41653.41"
   cy="1870.83"
   rx="450.28"
   ry="379.95001"
   id="ellipse47" />
    <ellipse
   class="fil4"
   cx="39630.59"
   cy="1870.83"
   rx="450.28"
   ry="379.95001"
   id="ellipse49" />
    <ellipse
   class="fil4"
   cx="37607.781"
   cy="1870.83"
   rx="450.28"
   ry="379.95001"
   id="ellipse51" />
   </g>
   <g
   id="g61">
    <ellipse
   class="fil4"
   transform="matrix(0,-1,-1,0,44993.8,9211.63)"
   rx="450.28"
   ry="379.95001"
   id="ellipse55"
   cx="0"
   cy="0" />
    <ellipse
   class="fil4"
   transform="matrix(0,-1,-1,0,44993.8,7188.81)"
   rx="450.28"
   ry="379.95001"
   id="ellipse57"
   cx="0"
   cy="0" />
    <ellipse
   class="fil4"
   transform="matrix(0,-1,-1,0,44993.8,5166)"
   rx="450.28"
   ry="379.95001"
   id="ellipse59"
   cx="0"
   cy="0" />
   </g>
  </g>
 </g>
</svg>
