<?xml version="1.0" encoding="UTF-8" standalone="no"?>
<!-- Creator: CorelDRAW -->

<svg
   xml:space="preserve"
   width="4.4689403mm"
   height="7.4422827mm"
   version="1.1"
   style="clip-rule:evenodd;fill-rule:evenodd;image-rendering:optimizeQuality;shape-rendering:geometricPrecision;text-rendering:geometricPrecision"
   viewBox="0 0 362.03662 602.91409"
   id="svg133"
   sodipodi:docname="FondoJuegoHockey.svg"
   inkscape:version="1.1.2 (b8e25be833, 2022-02-05)"
   xmlns:inkscape="http://www.inkscape.org/namespaces/inkscape"
   xmlns:sodipodi="http://sodipodi.sourceforge.net/DTD/sodipodi-0.dtd"
   xmlns="http://www.w3.org/2000/svg"
   xmlns:svg="http://www.w3.org/2000/svg"><sodipodi:namedview
   id="namedview135"
   pagecolor="#ffffff"
   bordercolor="#999999"
   borderopacity="1"
   inkscape:pageshadow="0"
   inkscape:pageopacity="0"
   inkscape:pagecheckerboard="0"
   inkscape:document-units="mm"
   showgrid="false"
   inkscape:zoom="6.7009799"
   inkscape:cx="10.670081"
   inkscape:cy="16.788589"
   inkscape:window-width="1920"
   inkscape:window-height="1001"
   inkscape:window-x="-9"
   inkscape:window-y="-9"
   inkscape:window-maximized="1"
   inkscape:current-layer="Capa_x0020_1" />
 <defs
   id="defs4">
  <style
   type="text/css"
   id="style2">
   <![CDATA[
    .str0 {stroke:#F8F7EC;stroke-width:171.48;stroke-miterlimit:22.9256}
    .str2 {stroke:#F8F7EC;stroke-width:171.48;stroke-miterlimit:22.9256}
    .str3 {stroke:#F8F7EC;stroke-width:171.48;stroke-miterlimit:22.9256}
    .str1 {stroke:#F8F7EC;stroke-width:171.48;stroke-miterlimit:22.9256}
    .fil2 {fill:none}
    .fil0 {fill:#140C2F}
    .fil3 {fill:#F4F4F4}
    .fil1 {fill:#F8F7EC}
    .fil4 {fill:#F4F4F4;fill-rule:nonzero}
   ]]>
  </style>
 </defs>
 <g
   id="Capa_x0020_1"
   inkscape:label="Capa 1"
   inkscape:groupmode="layer"
   transform="translate(-17616.493,-7351.9879)">
  <metadata
   id="CorelCorpID_0Corel-Layer" />
  
  <g
   id="Centro"
   transform="matrix(0.0504935,0,0,0.0504935,16898.851,7266.9957)">
   <g
   id="g39">
    <g
   id="g15">
     <path
   class="fil1"
   d="m 17701.96,13518.22 c 0,53.26 43.17,105.44 96.43,105.44 53.26,0 96.43,-52.19 96.43,-105.44 -0.46,-240.73 -2.71,-479.02 -2.41,-720.58 0.18,-141.67 -13.46,-425.3 -70.16,-477.93 -121.41,-112.69 -121.22,431.53 -121.16,479.77 z"
   id="path9" />
     <path
   class="fil1"
   d="m 17796.39,11921.64 c 139.02,1.16 122.94,-299.65 3.31,-300.45 -119.63,-0.8 -142.33,299.29 -3.31,300.45 z"
   id="path11" />
     <path
   class="fil1"
   d="m 17893.94,10024.6 c 0,-53.26 -43.17,-105.44 -96.43,-105.44 -53.26,0 -96.43,52.19 -96.43,105.44 0.46,240.73 2.71,479.02 2.41,720.58 -0.18,141.67 13.46,425.3 70.16,477.93 121.41,112.69 121.22,-431.53 121.16,-479.77 z"
   id="path13" />
    </g>
    <g
   id="g23">
     <path
   class="fil1"
   d="m 17893.05,1788.67 c 0,-53.26 -43.17,-105.44 -96.43,-105.44 -53.26,0 -96.43,52.19 -96.43,105.44 0.46,240.73 2.71,479.02 2.41,720.58 -0.18,141.67 13.46,425.3 70.16,477.93 121.41,112.69 121.22,-431.53 121.16,-479.77 z"
   id="path17" />
     <path
   class="fil1"
   d="m 17795.51,3685.7 c 139.02,1.16 122.94,-299.65 3.31,-300.45 -119.63,-0.8 -142.33,299.29 -3.31,300.45 z"
   id="path19" />
     <path
   class="fil1"
   d="m 17701.08,5282.28 c 0,53.26 43.17,105.44 96.43,105.44 53.26,0 96.43,-52.19 96.43,-105.44 -0.46,-240.73 -2.71,-479.02 -2.41,-720.58 0.18,-141.67 -13.46,-425.3 -70.16,-477.93 -121.41,-112.69 -121.22,431.53 -121.16,479.77 z"
   id="path21" />
    </g>
    <g
   id="g33">
     <path
   class="fil2 str0"
   d="m 17345.8,5091.65 c -1076.97,189.9 -1920.18,1033.11 -2110.08,2110.08"
   id="path25" />
     <path
   class="fil2 str1"
   d="M 20359.31,7201.74 C 20169.41,6124.77 19326.2,5281.56 18249.23,5091.66"
   id="path27" />
     <path
   class="fil2 str2"
   d="m 18249.23,10215.24 c 1076.97,-189.9 1920.18,-1033.11 2110.08,-2110.08"
   id="path29" />
     <path
   class="fil2 str3"
   d="m 15235.72,8105.16 c 189.9,1076.97 1033.11,1920.18 2110.08,2110.08"
   id="path31" />
    </g>
    <path
   class="fil1"
   d="m 20168.67,7557.01 c -53.26,0 -105.44,43.17 -105.44,96.43 0,53.26 52.19,96.43 105.44,96.43 240.73,-0.46 479.02,-2.71 720.58,-2.41 141.67,0.18 425.3,-13.46 477.93,-70.16 112.69,-121.41 -431.53,-121.22 -479.77,-121.16 z"
   id="path35" />
    <path
   class="fil1"
   d="m 15426.35,7749.87 c 53.26,0 105.44,-43.17 105.44,-96.43 0,-53.26 -52.19,-96.43 -105.44,-96.43 -240.73,0.46 -479.02,2.71 -720.58,2.41 -141.67,-0.18 -425.3,13.46 -477.93,70.16 -112.69,121.41 431.53,121.22 479.77,121.16 z"
   id="path37" />
   </g>
   <g
   id="g129">
    <g
   id="g97">
     <g
   id="g53">
      <g
   id="g43">
       <path
   class="fil3"
   d="m 17929.8,5751.38 c 0,0.01 -1.8,194.61 -1.8,194.61 -0.67,72.55 -60.02,130.83 -132.57,130.15 -72.55,-0.67 -130.83,-60.02 -130.15,-132.57 0,-0.02 1.8,-194.61 1.8,-194.62 0.67,-72.55 60.02,-130.83 132.57,-130.15 72.55,0.67 130.83,60.02 130.15,132.57 z"
   id="path41" />
      </g>
      <line
   class="fil2"
   x1="17798.439"
   y1="5750.1699"
   x2="17796.641"
   y2="5944.79"
   id="line45" />
      <path
   class="fil3"
   d="m 16435.75,6291.68 c 46.07,-46.34 125.07,17.56 212.95,99.68 110.35,103.14 203.44,219.64 234.72,257.98 98.35,120.54 144.67,238.27 155.46,245.44 -28.73,-19.7 -117.01,-60.31 -225.2,-135.24 -95.89,-66.41 -202.68,-165.71 -282.02,-248.91 -94.43,-99 -141.98,-172.63 -95.92,-218.96 z"
   id="path47" />
      <path
   class="fil3"
   d="m 16128.55,6962.15 c 123.19,173.92 121.21,150.6 341.45,141.44 -140.86,-154.89 -115.61,-166.32 -341.45,-141.44 z"
   id="path49" />
      <path
   class="fil3"
   d="m 17106.24,5984.51 c -35.86,210.09 -20.78,192.2 141.43,341.46 9.92,-209.12 35.86,-199.35 -141.43,-341.46 z"
   id="path51" />
     </g>
     <g
   id="g67">
      <g
   id="g57">
       <path
   class="fil3"
   d="m 15895.43,7521.16 c 0.02,0 194.61,1.8 194.62,1.8 72.55,0.67 130.83,60.02 130.15,132.57 -0.67,72.55 -60.03,130.82 -132.57,130.15 -0.02,0 -194.61,-1.8 -194.62,-1.8 -72.55,-0.67 -130.83,-60.02 -130.15,-132.57 0.67,-72.55 60.02,-130.82 132.57,-130.15 z"
   id="path55" />
      </g>
      <line
   class="fil2"
   x1="15894.23"
   y1="7652.52"
   x2="16088.85"
   y2="7654.3198"
   id="line59" />
      <path
   class="fil3"
   d="m 16435.73,9015.2 c -46.33,-46.06 17.57,-125.07 99.69,-212.95 103.14,-110.35 219.64,-203.44 257.98,-234.72 120.54,-98.36 238.27,-144.67 245.44,-155.46 -19.7,28.73 -60.31,117.01 -135.24,225.2 -66.41,95.88 -165.71,202.68 -248.91,282.02 -99,94.43 -172.63,141.98 -218.97,95.91 z"
   id="path61" />
      <path
   class="fil3"
   d="m 17106.21,9322.41 c 173.92,-123.19 150.6,-121.21 141.44,-341.45 -154.89,140.86 -166.32,115.61 -141.44,341.45 z"
   id="path63" />
      <path
   class="fil3"
   d="m 16128.57,8344.72 c 210.09,35.86 192.2,20.78 341.46,-141.44 -209.13,-9.92 -199.35,-35.85 -341.46,141.44 z"
   id="path65" />
     </g>
     <g
   id="g81">
      <g
   id="g71">
       <path
   class="fil3"
   d="m 17665.22,9555.52 c 0,-0.01 1.8,-194.61 1.8,-194.61 0.67,-72.55 60.02,-130.83 132.57,-130.15 72.54,0.67 130.82,60.02 130.15,132.57 0,0.01 -1.8,194.61 -1.8,194.62 -0.67,72.55 -60.02,130.82 -132.57,130.15 -72.55,-0.67 -130.82,-60.02 -130.15,-132.57 z"
   id="path69" />
      </g>
      <line
   class="fil2"
   x1="17796.57"
   y1="9556.7305"
   x2="17798.369"
   y2="9362.1104"
   id="line73" />
      <path
   class="fil3"
   d="m 19159.26,9015.22 c -46.06,46.34 -125.07,-17.56 -212.95,-99.68 -110.35,-103.14 -203.44,-219.64 -234.72,-257.98 -98.35,-120.54 -144.66,-238.27 -155.45,-245.44 28.73,19.7 117.01,60.31 225.19,135.24 95.89,66.41 202.68,165.7 282.03,248.9 94.43,99 141.98,172.64 95.91,218.97 z"
   id="path75" />
      <path
   class="fil3"
   d="m 19466.46,8344.75 c -123.19,-173.92 -121.21,-150.61 -341.45,-141.44 140.86,154.89 115.6,166.32 341.45,141.44 z"
   id="path77" />
      <path
   class="fil3"
   d="m 18488.77,9322.38 c 35.87,-210.08 20.79,-192.19 -141.43,-341.45 -9.92,209.12 -35.85,199.35 141.43,341.45 z"
   id="path79" />
     </g>
     <g
   id="g95">
      <g
   id="g85">
       <path
   class="fil3"
   d="m 19699.58,7785.74 c -0.01,0 -194.61,-1.8 -194.62,-1.8 -72.54,-0.67 -130.82,-60.02 -130.15,-132.57 0.67,-72.55 60.02,-130.83 132.57,-130.15 0.01,0 194.61,1.79 194.62,1.79 72.55,0.68 130.82,60.03 130.15,132.58 -0.67,72.54 -60.02,130.82 -132.57,130.15 z"
   id="path83" />
      </g>
      <line
   class="fil2"
   x1="19700.779"
   y1="7654.3799"
   x2="19506.17"
   y2="7652.5801"
   id="line87" />
      <path
   class="fil3"
   d="m 19159.28,6291.69 c 46.34,46.07 -17.57,125.07 -99.68,212.96 -103.14,110.35 -219.65,203.44 -257.99,234.72 -120.53,98.35 -238.26,144.67 -245.43,155.46 19.7,-28.73 60.31,-117.01 135.23,-225.2 66.41,-95.88 165.71,-202.68 248.91,-282.02 99,-94.43 172.64,-141.98 218.97,-95.92 z"
   id="path89" />
      <path
   class="fil3"
   d="m 18488.8,5984.49 c -173.91,123.19 -150.6,121.21 -141.44,341.45 154.89,-140.86 166.33,-115.61 141.44,-341.45 z"
   id="path91" />
      <path
   class="fil3"
   d="m 19466.44,6962.18 c -210.08,-35.86 -192.2,-20.78 -341.45,141.44 209.12,9.92 199.35,35.85 341.45,-141.44 z"
   id="path93" />
     </g>
    </g>
    <path
   class="fil4"
   d="m 17711.26,7606.93 c 0,-56.68 38.62,-102.63 86.25,-102.63 47.63,0 86.25,45.95 86.25,102.63 v 93.04 c 0,56.68 -38.62,102.63 -86.25,102.63 -47.63,0 -86.25,-45.95 -86.25,-102.63 z"
   id="path99" />
    <g
   id="g113">
     <g
   id="g103">
      <path
   class="fil3"
   d="m 17880.28,6635.49 c -72.85,645.85 -417.49,982.02 -936.11,1119.4 -47.09,6.89 -89.96,-32.92 -95.76,-88.96 -5.8,-56.03 27.67,-107.04 74.76,-113.94 408.7,-108.69 732.89,-400.36 791.55,-916.5 0,-54.4 37.05,-98.5 82.78,-98.5 45.71,0 82.78,44.1 82.78,98.5 z"
   id="path101" />
     </g>
     <path
   class="fil2"
   d="m 17797.5,6635.49 c 0,493.18 -463.53,959.29 -863.83,1017.95"
   id="path105" />
     <g
   id="g109">
      <path
   class="fil3"
   d="m 17714.72,6635.49 c 72.85,645.85 417.49,982.02 936.11,1119.4 47.09,6.89 89.96,-32.92 95.76,-88.96 5.79,-56.03 -27.67,-107.04 -74.77,-113.94 -408.7,-108.69 -732.88,-400.36 -791.54,-916.5 0,-54.4 -37.06,-98.5 -82.78,-98.5 -45.72,0 -82.79,44.1 -82.79,98.5 z"
   id="path107" />
     </g>
     <path
   class="fil2"
   d="m 17797.51,6635.49 c 0,493.18 463.52,959.29 863.82,1017.95"
   id="path111" />
    </g>
    <g
   id="g127">
     <g
   id="g117">
      <path
   class="fil3"
   d="m 17714.72,8671.39 c 72.85,-645.85 417.49,-982.02 936.11,-1119.4 47.09,-6.89 89.96,32.92 95.76,88.96 5.79,56.03 -27.67,107.04 -74.77,113.94 -408.7,108.69 -732.88,400.36 -791.54,916.5 0,54.4 -37.06,98.5 -82.78,98.5 -45.72,0 -82.79,-44.1 -82.79,-98.5 z"
   id="path115" />
     </g>
     <path
   class="fil2"
   d="m 17797.51,8671.39 c 0,-493.18 463.52,-959.29 863.82,-1017.95"
   id="path119" />
     <g
   id="g123">
      <path
   class="fil3"
   d="m 17880.28,8671.39 c -72.85,-645.85 -417.49,-982.02 -936.11,-1119.4 -47.09,-6.89 -89.96,32.92 -95.76,88.96 -5.8,56.03 27.67,107.04 74.76,113.94 408.7,108.69 732.89,400.36 791.55,916.5 0,54.4 37.05,98.5 82.78,98.5 45.71,0 82.78,-44.1 82.78,-98.5 z"
   id="path121" />
     </g>
     <path
   class="fil2"
   d="m 17797.5,8671.39 c 0,-493.18 -463.53,-959.29 -863.83,-1017.95"
   id="path125" />
    </g>
   </g>
  </g>
 </g>
</svg>
