<?xml version="1.0" encoding="UTF-8" standalone="no"?>
<!-- Creator: CorelDRAW -->

<svg
   xml:space="preserve"
   width="51.213108mm"
   height="26.369879mm"
   version="1.1"
   style="clip-rule:evenodd;fill-rule:evenodd;image-rendering:optimizeQuality;shape-rendering:geometricPrecision;text-rendering:geometricPrecision"
   viewBox="0 0 3536.6648 1821.0431"
   id="svg297"
   sodipodi:docname="FondoJuegoManos.svg"
   inkscape:version="1.1.2 (b8e25be833, 2022-02-05)"
   xmlns:inkscape="http://www.inkscape.org/namespaces/inkscape"
   xmlns:sodipodi="http://sodipodi.sourceforge.net/DTD/sodipodi-0.dtd"
   xmlns="http://www.w3.org/2000/svg"
   xmlns:svg="http://www.w3.org/2000/svg"><sodipodi:namedview
   id="namedview299"
   pagecolor="#ffffff"
   bordercolor="#999999"
   borderopacity="1"
   inkscape:pageshadow="0"
   inkscape:pageopacity="0"
   inkscape:pagecheckerboard="0"
   inkscape:document-units="mm"
   showgrid="false"
   inkscape:zoom="4.4731943"
   inkscape:cx="92.439536"
   inkscape:cy="51.529173"
   inkscape:window-width="1920"
   inkscape:window-height="1001"
   inkscape:window-x="-9"
   inkscape:window-y="-9"
   inkscape:window-maximized="1"
   inkscape:current-layer="Capa_x0020_1" />
 <defs
   id="defs7">
  <style
   type="text/css"
   id="style2">
   <![CDATA[
    .fil1 {fill:none}
    .fil8 {fill:#6E6456}
    .fil17 {fill:#BEE9CC}
    .fil14 {fill:#C7EACD}
    .fil15 {fill:#D6EBCE}
    .fil10 {fill:#EADCC6}
    .fil18 {fill:#EBDDC4}
    .fil11 {fill:#EBDDC6}
    .fil16 {fill:#EDCBB3}
    .fil12 {fill:#F3DDBD}
    .fil6 {fill:#F47A40}
    .fil7 {fill:#F47C42}
    .fil13 {fill:#F4DEBE}
    .fil5 {fill:#FCD591}
    .fil4 {fill:#FCDCA1}
    .fil3 {fill:#FDE2AF}
    .fil2 {fill:#FDE9C1}
    .fil0 {fill:#FEF0D3}
    .fil9 {fill:#6E6456;fill-rule:nonzero}
   ]]>
  </style>
   <clipPath
   id="id0">
    <path
   d="M 21996.71,10838.79 H 730.43 V 863.51 h 21266.28 z"
   id="path4" />
   </clipPath>
 </defs>
 <g
   id="Capa_x0020_1"
   inkscape:label="Capa 1"
   inkscape:groupmode="layer"
   transform="translate(-9595.2326,-4940.6357)">
  <metadata
   id="CorelCorpID_0Corel-Layer" />
  <g
   id="g10">
  </g>
  
  
  
  
  
  
  
  
  <g
   clip-path="url(#id0)"
   id="g15"
   transform="matrix(0.15561423,0,0,0.15561423,9595.2326,4940.6321)">
   <g
   id="_2498065023152">
    <rect
   class="fil0"
   x="199.92999"
   y="407.81"
   width="22968.41"
   height="11276.65"
   id="rect12" />
   </g>
  </g><polygon
   class="fil1"
   points="730.43,10838.79 730.43,863.51 21996.71,863.51 21996.71,10838.79 "
   id="polygon17"
   transform="matrix(0.15561423,0,0,0.15561423,9595.2326,4940.6321)" /><path
   id="_1"
   class="fil2"
   d="m 12871.939,6485.7616 c -9.838,10.9225 -20.465,-2.4354 -33.247,7.65 -19.298,15.2004 -49.301,23.921 -82.139,21.1059 -38.773,-3.3052 -81.002,-6.3817 -121.669,-7.7324 -81.232,-2.7139 -129.877,5.8402 -212.047,5.2317 -100.63,-0.7236 -272.274,1.6775 -373.71,10.6425 -54.796,4.8489 -121.471,12.0865 -175.741,13.999 -18.523,0.6583 -37.819,-0.065 -56.458,-0.1 -108.096,-0.1649 -205.497,-11.1451 -311.554,0.305 -37.788,4.0802 -126.332,9.3011 -154.183,7.9519 -49.583,-2.3855 -116.651,-0.7065 -160.788,-4.9361 -92.505,-8.8591 -199.126,-8.2086 -294.134,-19.1452 -24.66,-2.829 -79.062,1.7943 -107.092,3.159 -145.925,-1.7974 -254.304,-11.9901 -424.261,-4.8365 -34.02,-2.7155 -67.729,-7.1567 -102.669,-9.0645 -37.508,-4.0693 -72.805,2.9162 -110.311,-1.1531 -17.947,-0.05 -28.771,1.9747 -45.929,1.7102 -66.933,-1.0893 -125.181,-2.0401 -192.3643,-10.1492 -19.1001,-2.286 -47.1636,-9.2933 -63.9108,-15.6112 -13.9991,-5.28 -13.3906,-10.6783 -18.9989,-23.5911 -17.4055,-40.1065 -9.9376,-55.0439 -9.6575,-109.6769 0.4933,-98.7404 0.3782,-377.0611 -4.2607,-496.6926 0.061,-70.6629 -4.3245,-363.3375 -1.234,-433.6549 1.5126,-34.2662 4.228,-70.0482 6.6292,-104.1339 7.4694,-105.645 162.3181,-157.2513 200.582,-125.5169 24.035,19.9046 224.766,-3.9324 277.44,-8.1106 34.792,-2.7637 61.46,-1.6947 96.006,-1.0364 117.308,2.1895 272.767,0.1976 388.678,-10.3312 44.401,-4.0304 13.999,-9.8208 38.692,-5.017 30.237,5.8728 114.594,3.3892 147.184,2.8944 131.866,-1.9903 262.814,-7.1552 394.848,-7.1552 139.007,-1.5468 423.8,-4.228 464.006,15.0013 42.361,-0.428 342.454,8.358 374.661,0.4948 13.195,-3.257 206.457,-3.6367 235.213,-3.5371 70.49,0.2303 164.537,-5.6099 229.386,6.9762 65.771,12.765 128.183,28.0977 188.228,50.2743 30.286,11.2026 20.135,4.3089 39.613,76.889 15.25,56.8692 14.69,53.1033 11.12,106.5506 -4.293,64.0103 -23.913,131.1812 -17.469,195.828 0.386,3.8748 5.794,146.1109 7.353,270.1246 0.912,72.5956 -5.851,134.3635 -4.791,199.569 0.443,27.2278 -0.559,55.1434 -1.575,76.2852 -0.495,79.5718 0.46,158.8634 6.003,238.1053 1.332,19.1157 5.182,39.5649 -2.088,54.5662 -5.725,11.8126 -12.519,27.9996 -23.359,35.8628 z m 164.086,179.3454 -3376.0491,-15.5677 -0.859,-1608.6496 3391.2711,9.6201 c 0,517.4313 -14.363,1097.1659 -14.363,1614.5972 z"
   style="stroke-width:0.155614" /><path
   id="_2"
   class="fil3"
   d="m 12940.455,6334.696 c -3.373,10.5288 -10.315,5.2986 -14.476,35.7477 -3.207,23.4588 -4.951,54.5832 -13.112,75.2768 -10.364,26.2723 -39.613,69.2577 -85.74,85.0167 -48.958,16.7472 -55.175,-11.794 -109.479,-1.3321 -26.419,5.0995 -199.761,-18.2768 -227.824,-21.1713 -89.755,-9.245 -347.339,12.6826 -437.407,14.7398 -69.603,1.497 -121.105,26.915 -189.362,33.1474 -268.495,24.5186 -723.667,15.3451 -986.378,-8.9323 -36.274,0.8232 -72.202,-0.1 -108.558,1.1687 -34.529,1.1998 -68.056,4.5408 -102.39,6.1857 -13.398,0.6504 -70.809,-11.3365 -93.997,-13.1603 -119.695,-9.4085 -216.588,4.4926 -319.669,1.7444 -53.579,-1.4332 -296.7033,-1.3974 -319.2082,-3.8841 -31.5601,-3.5091 -59.6687,-3.8452 -84.2107,-24.5108 -24.643,-20.7434 -22.9826,-25.0212 -40.2216,-66.7398 -21.3362,-51.5893 -14.2293,-37.8688 -16.2212,-92.1719 -3.6025,-98.7699 -12.1893,-622.376 -7.9783,-719.8792 -1.1033,-92.7492 -2.5505,-190.5637 1.8253,-282.0788 3.7005,-77.4819 -9.2777,-59.0416 20.0525,-122.9695 6.9419,-15.1164 14.7569,-36.7825 24.7426,-46.4555 l 46.7357,-29.6445 c 3.1434,4.0475 103.7869,-4.9501 113.214,-5.7562 71.5269,-6.1203 35.8609,-4.1129 104.5429,-0.8714 11.402,0.5259 45.093,-2.0899 51.821,2.6485 10.923,7.7154 -4.492,10.1009 43.379,4.656 161.744,-18.3749 373.759,-17.0118 535.962,-10.9397 -7.633,3.783 -15.085,2.2533 -19.823,5.6908 4.951,4.8365 117.835,-0.3128 123.033,-1.4145 15.745,-3.3395 23.706,-3.52 40.799,-3.5371 141.408,-0.165 269.659,-17.6031 419.999,-16.2866 227.709,2.0074 456.193,11.2525 683.984,16.1543 10.117,5.5928 87.65,0.1323 99.987,0.526 95.002,3.0749 121.307,8.4234 216.705,9.3104 157.153,1.4332 226.014,-18.5399 377.886,-1.497 20.217,2.2688 45.569,6.1203 65.688,5.2473 5.888,-0.2459 116.567,27.5873 160.376,30.4677 16.137,1.0691 30.779,23.3266 37.589,36.0916 24.61,46.0945 19.034,69.4553 17.816,125.5682 -4.102,189.1709 8.806,924.7858 -10.084,983.8446 z M 9659.1154,5040.8897 c 0.3159,32.2868 -23.0029,1510.0867 0.8589,1608.6496 259.1444,35.3914 3282.7697,25.6468 3376.0497,15.5677 -1.188,-141.5903 12.57,-1488.0642 14.358,-1601.2191 -58.251,0 -3313.5436,-24.156 -3391.2666,-22.9982 z"
   style="stroke-width:0.155614" /><path
   id="_3"
   class="fil4"
   d="m 9737.4235,5505.6829 c 0.7906,-24.9231 -2.1879,-75.5258 2.5008,-99.411 7.3045,-36.9475 -2.188,-70.9352 8.6039,-106.0075 9.7539,-31.6349 21.204,-70.3268 34.579,-98.868 13.9804,-29.8623 40.3446,-34.2522 70.417,-45.9715 5.8075,-11.4501 35.3104,-15.8665 51.3683,-17.0196 7.5986,-0.5431 19.7396,-5.3795 28.5412,-7.9129 17.3058,-4.9501 42.3924,-12.8133 60.965,-14.9701 8.7023,26.4699 26.8153,20.4166 54.9633,17.3572 176.959,-19.2806 357.207,-19.5109 534.925,-19.444 50.453,0.016 107.061,2.4338 156.708,0.1789 16.995,-0.7734 12.602,-7.6328 31.19,-8.1759 l 116.866,-2.5661 c 117.326,-5.9056 403.385,11.3349 490.279,-3.8328 17.864,-3.1107 16.568,-5.7017 33.804,1.7273 14.97,6.4487 195.697,0.7236 213.711,-0.4108 17.371,-1.0691 5.561,-2.8742 56.214,2.0775 21.847,2.1396 39.132,-7.2252 60.42,-3.9853 18.145,2.7481 37.738,10.5288 56.689,11.0875 24,0.708 87.139,-5.7904 102.372,-2.0059 9.376,2.3187 17.306,9.6076 23.523,11.4486 9.905,2.9613 52.792,-0.8388 66.331,-1.0364 178.042,-2.6657 355.595,-6.0207 534.874,-6.514 38.164,-0.1 180.447,27.6044 213.874,15.4462 23.788,-8.6692 22.521,-16.4017 55.06,-11.6135 l 89.392,10.9724 c 15.842,1.4643 15.629,4.5564 23.244,12.8817 51.49,56.2608 49.517,59.8633 84.508,134.1862 7.98,16.9293 -0.493,35.2046 -3.85,54.8135 -3.667,21.369 -5.412,39.4156 -7.287,62.2317 -3.439,41.8011 -1.251,87.9625 3.981,128.3149 2.583,19.9715 3.758,119.3078 7.393,139.0802 0.03,0.1836 -10.345,668.9887 -26.066,712.5498 -12.716,35.2046 -22.52,106.7326 -39.02,134.5176 -105.4,42.0142 -143.828,58.9746 -237.251,74.3898 -12.65,0.1805 -71.89,-14.3274 -86.366,-14.4114 l -99.163,0.1976 c -34.516,-0.2474 -59.717,-4.1129 -99.428,-4.3261 -11.054,-0.067 -19.51,-2.0899 -31.273,-2.1708 -60.308,-0.4777 -263.341,13.193 -306.622,19.0161 -208.677,4.9345 -207.196,16.467 -367.327,6.9419 l -97.241,1.9747 c -102.783,0.8886 -182.42,3.159 -285.516,9.838 -29.974,1.942 -63.287,-2.7295 -92.634,-4.1285 -48.234,-2.2875 -145.373,0.4606 -194.333,3.2399 -53.134,3.0018 -229.957,-19.2993 -325.885,-17.4537 -127.147,2.451 -245.707,3.6523 -368.675,4.0958 l -138.746,-8.5868 c -7.37,0.6754 -15.512,2.9613 -23.739,3.4718 -23.062,1.3974 -100.348,-20.482 -114.38,-7.8803 l -11.071,17.6186 c -16.024,-0.1 -30.474,6.3428 -41.613,3.9744 -9.3932,-2.0074 -32.5797,-5.1773 -42.1873,-7.8741 -9.2124,-2.5988 -59.913,0.4777 -74.5377,-0.016 -15.759,-0.5259 -49.7794,-28.2455 -62.7747,-38.6592 -65.1946,-52.2319 -39.6147,-56.7385 -58.6962,-135.6692 -5.7748,-23.8541 -10.5786,-39.0373 -12.404,-63.7287 -0.6411,-8.5214 -3.1916,-11.2524 -5.5274,-18.4916 -5.4123,-16.7799 -2.8633,-66.1812 -5.1819,-86.1683 l -12.5861,-218.3158 c 2.6112,-153.9305 0.6613,-427.7618 4.0802,-516.0059 z m -49.5366,1149.264 c 1116.4041,0 2234.0431,-15.0105 3349.5121,-15.0105 l 13.195,-1609.3842 c -59.026,-7.2609 -3049.028,-8.621 -3391.4895,-8.621 0,544.5564 28.7824,1091.0876 28.7824,1633.0157 z"
   style="stroke-width:0.155614" /><path
   id="_4"
   class="fil5"
   d="m 13017.202,6351.1117 c -4.507,26.0405 -10.926,143.8109 -20.203,169.5246 -12.717,35.2046 -15.481,33.1489 -43.448,58.2339 -43.905,39.4 -8.257,22.2575 -72.711,30.2032 -14.607,1.7942 -25.334,3.6196 -43.906,3.6196 0,-8.5043 0.345,-8.1604 -2.089,-14.6246 -18.687,-4.6887 -13.16,-2.2533 -31.241,-2.0401 -11.778,0.1478 -23.374,0.1649 -32.932,1.4145 -18.49,2.4182 -45.619,0.2474 -65.424,0.5431 -12.651,0.1805 -18.835,2.2533 -33.312,2.1708 l -99.164,0.1976 c -34.513,-0.2458 -122.541,16.1061 -162.252,15.8758 -11.055,-0.067 -19.51,-2.0899 -31.273,-2.1724 -844.345,-6.4486 -224.321,-2.9613 -818.056,9.0972 -102.783,0.887 -182.42,3.159 -285.516,9.838 -29.975,1.942 -63.285,-2.7311 -92.633,-4.1285 -48.234,-2.2875 -145.374,0.4606 -194.332,3.2399 -47.459,2.6812 -50.092,0.2801 -79.472,-4.8022 -84.359,1.0519 -186.731,-1.6122 -270.579,0 -138.894,2.6812 -199.809,-12.1411 -304.206,-11.7629 l -167.993,-16.4344 c -7.369,0.6753 -15.512,2.9613 -23.738,3.4717 -210.4523,12.7651 -98.061,-8.1106 -229.1572,-19.8237 -9.2123,-2.5987 -56.1456,19.3958 -70.7702,18.9025 -15.759,-0.526 -44.6955,-10.4448 -57.6924,-20.8586 -65.1946,-52.2319 -35.6808,-45.6836 -54.7638,-124.6143 -5.7748,-23.851 -10.5786,-39.0358 -12.404,-63.7287 -0.6411,-8.5214 -3.1916,-11.2524 -5.5274,-18.4901 -1.5577,-4.8302 -38.4554,-459.4012 -38.9347,-535.523 -1.3849,-219.1391 45.5047,-549.4878 47.8389,-559.872 3.3707,-10.5288 10.3142,-5.2971 14.4768,-35.7461 3.2073,-23.4589 -8.0281,-58.1702 0.1308,-78.8638 10.3639,-26.2723 13.901,-24.7582 60.0281,-40.5188 48.9578,-16.7472 107.1264,-30.2203 161.4296,-40.6822 26.4202,-5.0995 61.5745,5.017 89.6405,7.913 89.755,9.2466 201.42,7.2049 291.488,5.1492 99.724,-2.2813 183.554,-4.3945 253.583,-6.363 14.5,1.1344 29.775,2.2922 46.571,3.492 83.848,1.6121 188.444,-14.1905 272.802,-13.137 29.38,-5.0823 32.013,-7.485 79.473,-4.8038 48.957,2.7808 161.666,-3.422 209.9,-5.7079 29.347,-1.3974 62.658,-6.069 92.632,-4.1285 103.096,6.6774 182.735,8.9478 285.517,9.8364 593.735,12.0585 -24.085,18.5788 820.259,12.1301 11.763,-0.081 20.219,-2.1054 31.273,-2.1723 39.712,-0.2304 127.74,16.1216 162.252,15.8757 40.844,0.081 174.914,5.9849 204.86,-1.5266 2.436,-6.4657 59.305,-2.3062 59.305,-10.8105 18.572,0 29.297,1.8254 43.905,3.6196 64.454,7.9457 55.643,-10.879 99.549,28.521 27.967,25.0866 3.894,24.7131 16.611,59.9177 1.881,4.7447 8.821,87.9407 -7.789,126.9236 -27.312,64.1037 -7.052,36.378 -3.979,163.6377 2.418,100.1222 38.891,246.0572 38.771,364.1233 -0.275,267.7032 -39.23,502.0318 -26.793,515.8659 z m 114.695,-1345.7659 v 30.2359 1631.1468 47.4748 47.4748 H 9595.2326 v -27.2076 -67.742 -1631.1468 -94.9496 h 3536.6644 z"
   style="stroke-width:0.155614" /><g
   id="_2498065056128"
   transform="matrix(0.15561423,0,0,0.15561423,9595.2326,4940.6321)">
   <path
   class="fil8"
   d="m 2537.36,1776.87 11.72,48.32 c 236.99,78.63 2019.36,36.89 2411.63,22.69 408.76,-14.72 817.84,1.56 1226.92,19.23 418.41,18.19 186.1,15.24 603.21,-19.57 61.52,-65.29 -13.24,-56.63 -121.42,-49.53 -259.12,16.97 -206.6,-5.55 -551.23,-15.59 -790.39,-22.86 -1636.22,-11.95 -2425.41,-3.46 -382.5,3.98 -780.19,-26.32 -1155.41,-2.08 z"
   id="path206" />
   <path
   class="fil8"
   d="m 2607.95,9816.14 -30.73,1.82 c -12.27,30.48 -5.32,20.72 -16.38,59.14 l 960.99,33.93 c 542.92,34.07 1113.81,1.64 1659.64,-1.47 l 1254.7,0.77 c 84.21,0.67 329.47,61.94 375.34,-45 -78.12,-91.96 -1848.89,-30.48 -2098.06,-31.63 -697.48,-3.33 -1410.98,-29.96 -2105.49,-17.56 z"
   id="path208" />
   <path
   class="fil8"
   d="m 1758.92,4121.36 c -3.55,-201.75 -3.45,-836.44 -16.47,-1269.36 -6.21,-206.43 26.86,-266.6 -32.73,-264.24 -12.42,20.87 -19.83,11.04 -28.83,235.31 -44.88,1118.69 8.5,4345.92 -7.98,5617.67 -6.13,473.36 23.79,523.42 40.12,523.42 61.43,0 42.97,-1222.89 45.9,-1523.74 10.19,-1102.7 10.19,-2216.35 0,-3319.05 z"
   id="path210" />
   <path
   class="fil8"
   d="m 16985.14,9785.69 c -103.84,104.35 -976.25,-46.81 -1056.94,63.57 23.55,154.91 248.01,72.98 320.54,71.79 120.85,-2.06 348.51,-3.41 469.44,-2.96 762.27,1.6 2169.29,93.64 2949.97,5.94 100.14,-11.61 437.13,40.59 507.53,-48.67 -26.64,-35.79 -78.89,-32.86 -183.39,-35.73 -303.96,-8 -887.23,22.65 -986.68,23.31 -177.91,-1.27 -1927.11,-7.75 -2020.47,-77.25 z"
   id="path212" />
   <path
   class="fil8"
   d="m 21056.44,6759.33 c 16.31,-530.38 23.13,-1128.32 21.61,-1765.51 -1.18,-492.53 58.98,-947.49 -5.75,-1302.68 l -43.46,-971.39 c -107.35,80.31 -62.17,950.77 -23.08,1103.56 -2.31,956.94 -50.63,2052.41 -29.92,3050.64 9.72,468.71 -114.76,2039.94 28.69,2218.63 80.03,2.91 30.6,-1635.29 51.91,-2333.25 z"
   id="path214" />
   <path
   class="fil8"
   d="m 19253.3,1797.13 c -771.15,-12.29 -3001.65,-92.52 -3325.09,12.61 13.89,92.24 49.7,65.47 124.57,60.95 935.3,-56.7 1769.81,-15.89 2718.14,3.52 159.96,-0.03 319.89,-2.82 479.83,-2.71 157.35,0.01 313.47,11.37 471.13,10.21 101.89,-0.93 397.6,33.06 453.13,-51.26 -65.16,-58.14 -357.48,-23.5 -453.63,-23.08 -156.04,0.86 -312.03,-7.75 -468.09,-10.23 z"
   id="path216" />
   <path
   class="fil9"
   d="m 20480.34,9878.77 23.2,-58.19 54.75,-1.62 c 103.46,-3.02 291.49,-8.52 386.39,-19.95 0.9,-25.92 -0.72,-62.21 -2.47,-101.4 -2.66,-59.82 -5.62,-126.08 -0.53,-180.32 7.4,-78.77 32.49,-134.24 96.07,-128.28 l 24.68,2.31 7.01,23.52 c 15.45,51.85 22.43,161.4 19.28,263.37 -2.88,93.19 -14.64,182.59 -36.67,221.35 l -8.12,14.28 -16.15,3.42 c -56.06,11.85 -144.83,18.31 -236.93,20.24 -102.85,2.15 -210.29,-1.27 -280.69,-9.05 l -47.55,-5.26 17.71,-44.41 z"
   id="path218" />
   <path
   class="fil9"
   d="m 1780.85,2240.32 c -10.37,39 -31.38,58.26 -69.29,48.19 l -12.44,-3.3 -7.69,-10.55 c -4.09,-5.61 -7.8,-11.88 -11.1,-18.74 -25.84,-53.49 -32.13,-158.15 -25.89,-252.97 5.41,-82.24 21.91,-160.36 44.92,-197.38 11.01,-17.69 20.86,-22.86 40.05,-28.33 54.42,-15.55 181.23,-25.72 295.57,-25.63 114.14,0.1 220.71,12.15 245.31,41.53 l 16.9,20.19 -13.76,22.35 c -31.04,50.46 -162.96,49.16 -286.61,47.95 -79.59,-0.78 -155.3,-1.53 -181.33,8.71 l -1.36,0.54 -2.92,0.75 c -28.64,7.34 -26.25,113.61 -24.2,204.94 1.28,57.06 2.46,109.29 -6.17,141.76 z"
   id="path220" />
   <path
   class="fil9"
   d="m 2232.99,9829.87 29.96,75.13 -41.19,9.75 c -67.14,15.89 -176.26,26.21 -280.7,25.21 -89.31,-0.85 -176.26,-10.12 -232.92,-31.35 l -12.47,-4.68 -6.51,-11.46 c -24.41,-42.95 -45,-194.76 -49.4,-335.48 -3.79,-121.11 4.69,-237.9 33.24,-278.68 l 10.85,-15.5 18.98,-0.06 c 77.45,-0.26 83.88,224.7 88.84,399.96 1.67,58.86 3.17,111.44 6.15,143.67 61.69,13.53 175.73,8.31 271.83,3.92 50.98,-2.33 97.14,-4.43 130.5,-3.43 l 23.96,0.73 8.87,22.26 z"
   id="path222" />
   <path
   class="fil9"
   d="m 20492.62,1865.77 -29.96,-75.13 41.19,-9.75 c 67.14,-15.89 176.25,-26.21 280.71,-25.21 89.31,0.85 176.26,10.12 232.92,31.35 l 12.47,4.68 6.51,11.46 c 24.41,42.95 45,194.77 49.4,335.48 3.78,121.11 -4.7,237.9 -33.25,278.68 l -10.86,15.5 -18.98,0.06 c -77.46,0.26 -83.87,-224.67 -88.84,-399.92 -1.67,-58.88 -3.17,-111.47 -6.15,-143.72 -61.68,-13.52 -175.73,-8.31 -271.82,-3.92 -50.99,2.33 -97.14,4.43 -130.51,3.43 l -23.96,-0.73 z"
   id="path224" />
  </g><g
   id="particulas"
   transform="matrix(0.15561423,0,0,0.15561423,9595.2326,4940.6321)">
   <g
   id="g267">
    <path
   class="fil10"
   d="m 18710.27,9016.39 c -81.14,18.67 -161.49,26.39 -197.95,80.35 -53.87,79.67 52.19,106.16 125.9,104.4 303.91,-7.62 247.02,-224.93 72.05,-184.75 z"
   id="path227" />
    <path
   class="fil11"
   d="m 20005.09,2366.92 c -22.68,13.1 -46.14,7.43 -49.66,58.75 -2.64,39.29 19.06,60.9 40.08,75.85 44.28,31.68 122.28,46.04 168.81,15.25 111.25,-73.61 -44.67,-215.64 -159.23,-149.86 z"
   id="path229" />
    <path
   class="fil12"
   d="m 16907.4,2743.96 c -158.45,50.05 -64.32,198.24 85.73,150.54 139.88,-44.38 63.24,-197.66 -85.73,-150.54 z"
   id="path231" />
    <path
   class="fil11"
   d="m 20439.14,3258.02 c -130.8,71.07 41.74,211.63 134.9,149.46 100.78,-67.25 -21.02,-211.34 -134.9,-149.46 z"
   id="path233" />
    <path
   class="fil11"
   d="m 17422.59,4304.28 c -113.49,70.58 25.8,192.86 119.64,145.55 114.17,-57.67 -3.32,-217.99 -119.64,-145.55 z"
   id="path235" />
    <path
   class="fil12"
   d="m 17105.75,8154.73 c -50.05,17.3 -104.2,28.15 -94.23,88.56 7.72,47.42 66.37,69.41 129.32,60.9 131.38,-17.79 107.92,-199.12 -35.1,-149.46 z"
   id="path237" />
    <path
   class="fil11"
   d="m 19395.6,8747.08 c -15.54,153.18 141.45,173.6 181.82,94.42 43.01,-84.16 -79.67,-169.4 -181.82,-94.42 z"
   id="path239" />
    <path
   class="fil11"
   d="m 4651.14,3881.71 c -165.1,63.44 -39.49,184.75 73.01,140.37 101.27,-39.88 48.49,-187.1 -73.01,-140.37 z"
   id="path241" />
    <path
   class="fil13"
   d="m 15824.45,8923.42 c -173.9,70.38 54.84,220.92 115.54,104.01 39.98,-77.12 -73.51,-121.02 -115.54,-104.01 z"
   id="path243" />
    <path
   class="fil14"
   d="m 7147.8,9193.44 c -108.12,55.03 -12.71,195.3 65.4,156.01 23.36,-11.73 55.03,-66.47 43.89,-111.54 -9.77,-39.39 -60.11,-69.5 -109.28,-44.47 z"
   id="path245" />
    <path
   class="fil14"
   d="m 18494.73,7610.53 c -105.67,65.3 -3.81,188.18 81.03,133.83 79.08,-50.64 9.09,-189.35 -81.03,-133.83 z"
   id="path247" />
    <path
   class="fil15"
   d="m 17897.85,9154.02 49.56,25.32 c 67.15,9.19 108.41,-55.33 78.79,-101.76 -45.75,-71.56 -181.92,-28.65 -128.35,76.44 z"
   id="path249" />
    <path
   class="fil14"
   d="m 18161.39,2422.97 c 61.97,19.35 82.99,11.24 126.2,-18.48 l -3.13,-86.61 c -99.31,-38.22 -159.92,4.59 -123.07,105.09 z"
   id="path251" />
    <path
   class="fil14"
   d="m 18079.28,3339.48 c 16.03,0 43.89,44.18 94.91,5.57 20.92,-15.83 40.86,-57.57 14.18,-91.69 -37.34,-47.51 -139.3,-27.17 -109.09,86.11 z"
   id="path253" />
    <path
   class="fil16"
   d="m 5949.9,8404.28 c 49.66,42.33 149.27,51.52 136.46,-56.01 -60.12,-43.98 -135.29,-43.6 -136.46,56.01 z"
   id="path255" />
    <path
   class="fil14"
   d="m 4866.93,7622.45 c 103.61,18.09 131.67,-71.85 81.81,-105.87 -73.31,-49.95 -112.22,32.46 -81.81,105.87 z"
   id="path257" />
    <path
   class="fil14"
   d="m 19794.89,4163.45 c 38.22,-101.56 -39.29,-131.18 -87.88,-87.39 -52.69,47.61 -11.93,119.46 87.88,87.39 z"
   id="path259" />
    <path
   class="fil17"
   d="m 6577.48,2306 c -39.69,59.24 -58.16,129.62 61.39,107.82 38.02,-59.04 44.96,-118.57 -61.39,-107.82 z"
   id="path261" />
    <path
   class="fil18"
   d="m 15650.45,3141.05 c -95.7,75.56 55.33,203.91 139.01,139.88 78.3,-59.82 -38.71,-219.15 -139.01,-139.88 z"
   id="path263" />
    <path
   class="fil14"
   d="m 16249.57,3527.16 c -25.51,-17.31 -45.94,-46.14 -99.51,-21.99 -27.47,12.31 -52.88,50.25 -32.46,93.55 27.66,58.36 156.31,59.44 131.96,-71.55 z"
   id="path265" />
   </g>
   <path
   class="fil11"
   d="m 6456.4,7519.6 c -26.15,1.38 -44.49,-14.32 -70.91,29.82 -20.18,33.82 -10.64,62.92 1.3,85.78 25.09,48.32 88.08,96.52 143.52,90.18 132.53,-15.12 58.03,-212.43 -73.91,-205.79 z"
   id="path269" />
   <path
   class="fil12"
   d="m 3556.89,8185.15 c -163.92,-27.3 -147.27,147.47 8.09,173.04 144.79,23.92 146.04,-147.45 -8.09,-173.04 z"
   id="path271" />
   <path
   class="fil11"
   d="m 2189.05,9025.36 c -133.16,11.4 -64.51,183.58 40.59,183.99 127.92,0.41 95.94,-195.76 -40.59,-183.99 z"
   id="path273" />
   <path
   class="fil12"
   d="m 4415.09,8918.44 c -52.45,-7.29 -105.63,-22.19 -124.16,36.17 -14.63,45.76 27.66,91.96 87.62,112.95 125.15,43.75 186.51,-128.48 36.54,-149.12 z"
   id="path275" />
   <path
   class="fil14"
   d="m 2764.19,7608.54 c -14.89,-26.99 -20.01,-61.97 -78.7,-64.76 -30.07,-1.48 -69.93,20.79 -71.37,68.64 -1.82,64.56 112.33,123.88 150.07,-3.89 z"
   id="path277" />
   <path
   class="fil10"
   d="m 5932.39,3358.68 c -12.14,82.37 -34.19,160.02 2.8,213.62 54.6,79.16 117.87,-9.99 143.06,-79.28 103.5,-285.84 -119.6,-311.93 -145.86,-134.34 z"
   id="path279" />
   <path
   class="fil12"
   d="m 3391.31,2901.28 c -50.05,17.3 -104.2,28.15 -94.23,88.56 7.72,47.42 66.37,69.41 129.32,60.9 131.38,-17.79 107.92,-199.12 -35.1,-149.46 z"
   id="path281" />
   <path
   class="fil11"
   d="m 2978.98,3866.5 c -15.54,153.18 141.45,173.6 181.82,94.42 43.01,-84.16 -79.67,-169.4 -181.82,-94.42 z"
   id="path283" />
   <path
   class="fil13"
   d="m 2217.34,3652.75 c -173.9,70.38 54.84,220.92 115.54,104.01 39.98,-77.12 -73.51,-121.02 -115.54,-104.01 z"
   id="path285" />
   <path
   class="fil14"
   d="m 5258.64,2027.33 c -105.67,65.3 -3.81,188.18 81.03,133.83 79.08,-50.64 9.09,-189.35 -81.03,-133.83 z"
   id="path287" />
   <path
   class="fil15"
   d="m 2482.29,2227.97 49.56,25.32 c 67.15,9.19 108.41,-55.33 78.79,-101.76 -45.75,-71.56 -181.92,-28.65 -128.35,76.44 z"
   id="path289" />
   <path
   class="fil11"
   d="m 6026.33,9306.56 c -148.8,3.99 -58.82,207.53 52.4,194.4 120.33,-14.21 77.16,-197.86 -52.4,-194.4 z"
   id="path291" />
   <path
   class="fil12"
   d="m 4312,2385.9 c -163.92,-27.3 -147.27,147.47 8.09,173.04 144.79,23.92 146.04,-147.45 -8.09,-173.04 z"
   id="path293" />
  </g>
 </g>
</svg>
