<?xml version="1.0" encoding="UTF-8" standalone="no"?>
<!-- Creator: CorelDRAW -->

<svg
   xml:space="preserve"
   width="18.616617mm"
   height="3.5mm"
   version="1.1"
   style="clip-rule:evenodd;fill-rule:evenodd;image-rendering:optimizeQuality;shape-rendering:geometricPrecision;text-rendering:geometricPrecision"
   viewBox="0 0 1456.9812 273.91818"
   id="svg30"
   sodipodi:docname="ManoGato1.svg"
   inkscape:version="1.1.2 (b8e25be833, 2022-02-05)"
   xmlns:inkscape="http://www.inkscape.org/namespaces/inkscape"
   xmlns:sodipodi="http://sodipodi.sourceforge.net/DTD/sodipodi-0.dtd"
   xmlns="http://www.w3.org/2000/svg"
   xmlns:svg="http://www.w3.org/2000/svg"><sodipodi:namedview
   id="namedview32"
   pagecolor="#ffffff"
   bordercolor="#999999"
   borderopacity="1"
   inkscape:pageshadow="0"
   inkscape:pageopacity="0"
   inkscape:pagecheckerboard="0"
   inkscape:document-units="mm"
   showgrid="false"
   inkscape:zoom="4.7203681"
   inkscape:cx="-8.1561436"
   inkscape:cy="25.315822"
   inkscape:window-width="1920"
   inkscape:window-height="1001"
   inkscape:window-x="-9"
   inkscape:window-y="-9"
   inkscape:window-maximized="1"
   inkscape:current-layer="Capa_x0020_1" />
 <defs
   id="defs4">
  <style
   type="text/css"
   id="style2">
   <![CDATA[
    .fil0 {fill:#373435}
    .fil1 {fill:#41444E}
    .fil2 {fill:#9A6159}
    .fil3 {fill:#F8F7EC}
   ]]>
  </style>
 </defs>
 <g
   id="Capa_x0020_1"
   inkscape:label="Capa 1"
   inkscape:groupmode="layer"
   transform="translate(-18406.202,-1257.268)">
  <metadata
   id="CorelCorpID_0Corel-Layer" />
  <g
   id="PLAYER1"
   transform="matrix(0.0999124,0,0,0.0999124,18406.202,1257.2666)">
   <path
   class="fil0"
   d="m 5388.74,20.92 -122.52,5.36 -434.48,0.45 C 4597.01,27.03 234.43,23.85 0,23.85 v 2702.09 c 407.72,0 4944.52,12.85 5351.52,9.19 170.6,-1.57 340.32,-9.6 505.94,-11.17 143.98,-1.2 336.51,9.51 486.4,-4.75 l 61.08,-10.29 c 116.78,32.41 251.92,19.93 429,9.2 l 55.1,-10.42 c 51.67,-9.77 103.42,15.33 165.85,24.75 154.65,23.45 1134.95,-5.24 1377.78,-8.15 117.32,-1.34 234.41,-3.24 351.73,-3.46 34.8,-0.09 68.63,-1.22 101.84,-2.72 22.36,-0.45 48.6,1.9 67.07,-1.35 18.47,-3.26 35.81,-20.54 49.64,-14.35 l 24.14,10.82 c 17.68,7.92 46.97,-14.64 66.07,-11.38 l 93.04,15.93 c 178.33,16.99 561.61,2.62 709.65,3.61 l 1547.61,12.17 c 255.68,1.12 536.61,-17.53 787.31,-6.25 251.81,11.39 532.86,-4.47 788.42,-5.69 12.43,-0.05 24.88,-1.3 37.36,-3.51 h 192.92 c 748.23,0 1333.11,-582.71 1333.11,-1331.48 0,-740.72 -586.28,-1354.96 -1333.11,-1354.96 h -855.83 c -195.78,-7.18 -363.54,-10.09 -452.56,-8.97 l -273.49,8.97 h -134.91 c -148.93,-5.17 -282.72,-11.62 -439.74,-9.19 -35.94,2.07 -82.89,5.53 -135.75,9.31 l -469,16.4 -258.87,-16.4 c -292.25,-32.9 -514.66,-48.68 -830.99,-5.29 -19.88,2.72 -52.71,22.47 -77.97,23.31 L 9210.19,31.68 c -56.51,-1.19 -113,-3.29 -158.49,-3.39 L 6842.84,13.22 c -482.01,-1.67 -974.76,17.63 -1454.11,7.7 z"
   id="path7" />
   <path
   class="fil1"
   d="m 120.52,152.2 h 13128.95 c 679.44,0 1212.58,559.37 1212.58,1234.43 0,683.02 -531.62,1210.96 -1212.58,1210.96 H 120.52 Z"
   id="path9" />
   <path
   class="fil0"
   d="m 14500.78,1310.27 c -340.14,-15.69 -697.58,-26.6 -1001.05,10.32 180.39,64.93 525.02,86.46 999.09,71.6 l 1.96,-81.93 z"
   id="path11" />
   <path
   class="fil0"
   d="m 14154.67,2241.05 c -299.71,-68.24 -577.22,-185.4 -899.13,-204.72 171.69,111.16 552.66,198.51 828.99,297.77 l 70.15,-93.05 z"
   id="path13" />
   <path
   class="fil0"
   d="m 14154.67,506.9 c -299.71,68.24 -577.22,185.39 -899.13,204.71 171.69,-111.16 552.66,-198.5 828.99,-297.77 l 70.15,93.05 z"
   id="path15" />
  </g>
  
 </g>
</svg>
