<?xml version="1.0" encoding="UTF-8" standalone="no"?>
<!-- Creator: CorelDRAW -->

<svg
   xml:space="preserve"
   width="9.9999819mm"
   height="9.9999819mm"
   version="1.1"
   style="clip-rule:evenodd;fill-rule:evenodd;image-rendering:optimizeQuality;shape-rendering:geometricPrecision;text-rendering:geometricPrecision"
   viewBox="0 0 369.30328 369.30379"
   id="svg121"
   sodipodi:docname="Players2.svg"
   inkscape:version="1.1.2 (b8e25be833, 2022-02-05)"
   xmlns:inkscape="http://www.inkscape.org/namespaces/inkscape"
   xmlns:sodipodi="http://sodipodi.sourceforge.net/DTD/sodipodi-0.dtd"
   xmlns="http://www.w3.org/2000/svg"
   xmlns:svg="http://www.w3.org/2000/svg"><sodipodi:namedview
   id="namedview123"
   pagecolor="#ffffff"
   bordercolor="#999999"
   borderopacity="1"
   inkscape:pageshadow="0"
   inkscape:pageopacity="0"
   inkscape:pagecheckerboard="0"
   inkscape:document-units="mm"
   showgrid="false"
   inkscape:zoom="4.8567259"
   inkscape:cx="120.76037"
   inkscape:cy="90.493062"
   inkscape:window-width="1920"
   inkscape:window-height="1001"
   inkscape:window-x="-9"
   inkscape:window-y="-9"
   inkscape:window-maximized="1"
   inkscape:current-layer="Capa_x0020_1" />
 <defs
   id="defs10">
  <style
   type="text/css"
   id="style2">
   <![CDATA[
    .fil3 {fill:none}
    .fil0 {fill:#2A5361}
    .fil2 {fill:#358599}
    .fil1 {fill:#3FA3A7}
    .fil5 {fill:#A55D0A}
    .fil7 {fill:#D98B26}
    .fil4 {fill:#F4F4F4}
    .fil6 {fill:#FFA630}
   ]]>
  </style>
    <clipPath
   id="id0">
     <path
   d="m 1399.26,2649.79 c 690.65,0 1250.53,-559.88 1250.53,-1250.53 0,-690.65 -559.88,-1250.53 -1250.53,-1250.53 -690.65,0 -1250.53,559.88 -1250.53,1250.53 0,690.65 559.88,1250.53 1250.53,1250.53 z"
   id="path4" />
    </clipPath>
    <clipPath
   id="id1">
     <path
   d="m 4197.79,2649.79 c 690.65,0 1250.53,-559.88 1250.53,-1250.53 0,-690.65 -559.88,-1250.53 -1250.53,-1250.53 -690.65,0 -1250.53,559.88 -1250.53,1250.53 0,690.65 559.88,1250.53 1250.53,1250.53 z"
   id="path7" />
    </clipPath>
 <clipPath
   id="id1-0"><path
     d="m 4197.79,2649.79 c 690.65,0 1250.53,-559.88 1250.53,-1250.53 0,-690.65 -559.88,-1250.53 -1250.53,-1250.53 -690.65,0 -1250.53,559.88 -1250.53,1250.53 0,690.65 559.88,1250.53 1250.53,1250.53 z"
     id="path7-6" /></clipPath></defs>
 <g
   id="Capa_x0020_1"
   inkscape:label="Capa 1"
   inkscape:groupmode="layer"
   transform="translate(311.40022,230.92528)">
  <metadata
   id="CorelCorpID_0Corel-Layer" />
  <g
   id="Player_x0020_2"
   transform="matrix(0.13196396,0,0,0.13196396,-680.70558,-230.92528)"
   style="clip-rule:evenodd;fill-rule:evenodd;image-rendering:optimizeQuality;shape-rendering:geometricPrecision;text-rendering:geometricPrecision"><circle
     class="fil5"
     cx="4197.79"
     cy="1399.26"
     r="1399.26"
     id="circle76" /><path
     class="fil6"
     d="m 4197.79,2649.79 c 690.65,0 1250.53,-559.88 1250.53,-1250.53 0,-690.65 -559.88,-1250.53 -1250.53,-1250.53 -690.65,0 -1250.53,559.88 -1250.53,1250.53 0,690.65 559.88,1250.53 1250.53,1250.53 z"
     id="path78" /><g
     clip-path="url(#id1-0)"
     id="g83"><g
       id="g81"><path
         id="_1_0"
         class="fil7"
         d="m 4183.96,2892.3 c 834.38,0 1510.79,-676.4 1510.79,-1510.79 0,-834.38 -676.4,-1510.79 -1510.79,-1510.79 -834.38,0 -1510.79,676.4 -1510.79,1510.79 0,834.38 676.4,1510.79 1510.79,1510.79 z M 3263.4,852.75 C 3353.81,634.58 3609.23,465 3696.42,417.6 c 310.6,-168.84 364.88,-61.13 311.71,-59.82 -81.57,2.03 -275.22,91.56 -412.22,215.95 192.29,-135.59 473.56,-161.26 492.87,-205.37 91.64,-209.32 201.91,-57.18 206.39,-5.13 -20.54,11.83 435.9,-58.62 681.77,262.8 132.99,173.86 358.69,360.33 309.61,861.77 -37.21,380.05 -333.97,577.57 -405.77,619.33 -2.42,1.4 -251.78,205.6 -257.8,207.68 39.27,50.47 -37.89,168.99 -117.9,62.79 -114.78,71.04 -298.93,82.31 -299.15,86.28 -11.93,207.88 -193.96,54.84 -125.18,0.03 -0.73,-10.59 -191.17,-20.91 -391.77,-137.36 -242.57,-140.81 -532.41,-421.85 -596.93,-878.26 -23.34,-165.16 81.33,-396.35 80.22,-410.37 -137.5,-135.1 -92.98,-192.9 91.12,-185.18 z" /></g></g><path
     class="fil3"
     d="m 4197.79,2649.79 c 690.65,0 1250.53,-559.88 1250.53,-1250.53 0,-690.65 -559.88,-1250.53 -1250.53,-1250.53 -690.65,0 -1250.53,559.88 -1250.53,1250.53 0,690.65 559.88,1250.53 1250.53,1250.53 z"
     id="path85" /><g
     id="g117"><g
       id="g89"><path
         class="fil4"
         d="m 3561.9,476.08 c 193.77,567.82 343.97,1151.22 544.65,1715.67 43.73,122.98 65.96,213.38 115.59,332.97 7.78,17.99 -0.49,38.88 -18.47,46.66 -17.99,7.78 -38.88,-0.49 -46.66,-18.47 -52.15,-125.62 -94.07,-197.72 -140.78,-329.09 -198.85,-559.29 -359.36,-1152.61 -531.24,-1722.58 -6.94,-21.24 4.64,-44.08 25.88,-51.03 21.24,-6.94 44.08,4.64 51.03,25.88 z"
         id="path87" /></g><path
       class="fil3"
       d="m 3523.45,488.66 c 192.5,588.62 442.05,1532.37 666.13,2050.16"
       id="path91" /><g
       id="g95"><path
         class="fil4"
         d="m 4889.66,510.67 c -259.41,488.67 -413.34,1185.42 -575.68,1719.25 -36.82,121.08 -67.05,160.35 -91.47,285.13 -2.27,13.22 -14.84,22.1 -28.06,19.82 -13.22,-2.27 -22.1,-14.83 -19.82,-28.06 33.26,-170 -0.4,19.92 22.32,-182.55 40.87,-364.1 430.09,-1536.84 624.81,-1857.61 12.16,-18.75 37.21,-24.09 55.96,-11.93 18.75,12.16 24.09,37.21 11.93,55.96 z"
         id="path93" /></g><path
       class="fil3"
       d="M 4855.72,488.66 C 4654.88,798.27 4260.4,2151.73 4198.58,2510.93"
       id="path97" /><g
       id="g101"><path
         class="fil4"
         d="m 3112.03,1706.6 c 237.77,-124.64 763.63,-509.75 959.33,-687.04 245.18,-222.12 376.36,-342.37 672.16,-501.04 l 98.67,-55.82 c 14.33,-7.47 32.01,-1.91 39.47,12.43 7.47,14.33 1.91,32 -12.42,39.47 -143.62,81.27 -272.55,188.49 -404.29,288.06 -155.21,117.31 -327.71,237.57 -475.78,356.33 -319.09,255.94 -454.82,429.93 -843.89,621.38 -20.37,9.18 -44.33,0.12 -53.51,-20.25 -9.18,-20.37 -0.12,-44.33 20.26,-53.51 z"
         id="path99" /></g><path
       class="fil3"
       d="M 3128.66,1743.49 C 3576.39,1541.6 4354.79,749.71 4855.72,488.66"
       id="path103" /><g
       id="g107"><path
         class="fil4"
         d="m 3615.44,523.62 c 145.33,103.03 295.49,214.07 442.13,319.29 222.13,159.39 520.43,364.04 722.44,535.46 123.68,104.95 153.15,125.24 286.16,214.41 92.56,62.06 118.2,97.88 207.73,151.57 6.28,3.59 8.46,11.58 4.88,17.87 -3.59,6.28 -11.59,8.46 -17.87,4.88 l -61.64,-36.96 c -132.41,-67.24 -130.05,-64.43 -256.5,-153.8 -117.4,-82.96 -205.49,-124.41 -321.84,-202.23 -349.97,-234.1 -707.62,-532.76 -1033.81,-802.13 -13.35,-7.82 -17.83,-24.98 -10.02,-38.34 7.82,-13.35 24.99,-17.83 38.34,-10.02 z"
         id="path105" /></g><path
       class="fil3"
       d="m 3601.28,547.8 c 15.69,9.19 153.16,123.78 210.58,167.11 294.3,222.08 1163.64,874.18 1455.55,1040.82"
       id="path109" /><g
       id="g113"><path
         class="fil4"
         d="m 5267.34,1794.94 c -479.06,18.64 -1005.19,38.42 -1482.58,33.04 -244.76,-2.76 -435.85,-32.94 -674.61,-45.53 -14.76,-0.89 -26.01,-13.58 -25.12,-28.34 0.89,-14.76 13.58,-26 28.34,-25.12 203.72,10.74 339.92,-5.98 537.28,-6.97 533.81,-2.69 1086.88,-24.1 1616.84,-5.52 21.66,0.04 39.18,17.63 39.14,39.29 -0.04,21.66 -17.63,39.18 -39.29,39.14 z"
         id="path111" /></g><path
       class="fil3"
       d="m 5267.41,1755.72 c -717.45,-1.38 -1438.82,43.09 -2155.66,0"
       id="path115" /></g></g>
  
 </g>
</svg>
