<?xml version="1.0" encoding="UTF-8" standalone="no"?>
<!-- Creator: CorelDRAW -->

<svg
   xml:space="preserve"
   width="9.9999819mm"
   height="9.9999819mm"
   version="1.1"
   style="clip-rule:evenodd;fill-rule:evenodd;image-rendering:optimizeQuality;shape-rendering:geometricPrecision;text-rendering:geometricPrecision"
   viewBox="0 0 369.30328 369.30379"
   id="svg121"
   sodipodi:docname="Players.svg"
   inkscape:version="1.1.2 (b8e25be833, 2022-02-05)"
   xmlns:inkscape="http://www.inkscape.org/namespaces/inkscape"
   xmlns:sodipodi="http://sodipodi.sourceforge.net/DTD/sodipodi-0.dtd"
   xmlns="http://www.w3.org/2000/svg"
   xmlns:svg="http://www.w3.org/2000/svg"><sodipodi:namedview
   id="namedview123"
   pagecolor="#ffffff"
   bordercolor="#999999"
   borderopacity="1"
   inkscape:pageshadow="0"
   inkscape:pageopacity="0"
   inkscape:pagecheckerboard="0"
   inkscape:document-units="mm"
   showgrid="false"
   inkscape:zoom="4.8567259"
   inkscape:cx="88.845862"
   inkscape:cy="66.814559"
   inkscape:window-width="1920"
   inkscape:window-height="1001"
   inkscape:window-x="-9"
   inkscape:window-y="-9"
   inkscape:window-maximized="1"
   inkscape:current-layer="Capa_x0020_1" />
 <defs
   id="defs10">
  <style
   type="text/css"
   id="style2">
   <![CDATA[
    .fil3 {fill:none}
    .fil0 {fill:#2A5361}
    .fil2 {fill:#358599}
    .fil1 {fill:#3FA3A7}
    .fil5 {fill:#A55D0A}
    .fil7 {fill:#D98B26}
    .fil4 {fill:#F4F4F4}
    .fil6 {fill:#FFA630}
   ]]>
  </style>
    <clipPath
   id="id0">
     <path
   d="m 1399.26,2649.79 c 690.65,0 1250.53,-559.88 1250.53,-1250.53 0,-690.65 -559.88,-1250.53 -1250.53,-1250.53 -690.65,0 -1250.53,559.88 -1250.53,1250.53 0,690.65 559.88,1250.53 1250.53,1250.53 z"
   id="path4" />
    </clipPath>
    <clipPath
   id="id1">
     <path
   d="m 4197.79,2649.79 c 690.65,0 1250.53,-559.88 1250.53,-1250.53 0,-690.65 -559.88,-1250.53 -1250.53,-1250.53 -690.65,0 -1250.53,559.88 -1250.53,1250.53 0,690.65 559.88,1250.53 1250.53,1250.53 z"
   id="path7" />
    </clipPath>
 </defs>
 <g
   id="Capa_x0020_1"
   inkscape:label="Capa 1"
   inkscape:groupmode="layer"
   transform="translate(-5.109337e-4)">
  <metadata
   id="CorelCorpID_0Corel-Layer" />
  <g
   id="player_x0020_1"
   transform="scale(0.13196396)">
   <circle
   class="fil0"
   cx="1399.26"
   cy="1399.26"
   r="1399.26"
   id="circle13" />
   <path
   class="fil1"
   d="m 1399.26,2649.79 c 690.65,0 1250.53,-559.88 1250.53,-1250.53 0,-690.65 -559.88,-1250.53 -1250.53,-1250.53 -690.65,0 -1250.53,559.88 -1250.53,1250.53 0,690.65 559.88,1250.53 1250.53,1250.53 z"
   id="path15" />
   <g
   clip-path="url(#id0)"
   id="g20">
    <g
   id="g18">
     <path
   id="_1"
   class="fil2"
   d="m 1385.39,2941.36 c 847.85,0 1535.16,-687.32 1535.16,-1535.16 0,-847.85 -687.32,-1535.16 -1535.16,-1535.16 -847.85,0 -1535.16,687.32 -1535.16,1535.16 0,847.85 687.32,1535.16 1535.16,1535.16 z M 2500.8,1108.87 c -14.68,-76.21 -45.04,-130.86 -92.95,-175.75 -44.86,-42.04 -81.16,-141.96 -4.56,-130.94 113.32,16.3 124.67,231.11 97.51,306.69 z M 1032.78,354.95 c 227.75,-137.91 625.83,-138.27 877.38,29.65 312.35,208.5 666.85,823.36 466.21,1312.59 97.75,-178.03 108.75,-253.41 96.31,-353.78 105.69,532.95 -435.38,1059.93 -930.92,1129.3 88.94,40.86 387.93,-15.09 190,37.7 -383.36,102.22 -860.28,-31.82 -1133.13,-316.12 159.67,93.54 250.29,123 313.92,139.11 C 950.18,2342.93 578,2193.49 378.77,1777.89 187.2,1378.25 350.2,824.22 695.07,588.66 c 82.71,-56.49 166.18,-101.4 237.34,-135.23 29.25,-13.91 87.92,-39.54 123.78,-74.03 41.69,-40.1 117.52,-52.92 117.21,-52.99 -46.41,2.27 -93.28,11.56 -140.61,28.55 z" />
    </g>
   </g>
   <path
   class="fil3"
   d="m 1399.26,2649.79 c 690.65,0 1250.53,-559.88 1250.53,-1250.53 0,-690.65 -559.88,-1250.53 -1250.53,-1250.53 -690.65,0 -1250.53,559.88 -1250.53,1250.53 0,690.65 559.88,1250.53 1250.53,1250.53 z"
   id="path22" />
   <g
   id="ojo">
    <g
   id="g38">
     <g
   id="g26">
      <path
   class="fil4"
   d="m 699.82,1125.75 c 63.21,406.36 185.6,755.32 465.76,1064.06 11.53,10.51 12.35,28.38 1.84,39.9 -10.51,11.53 -28.38,12.35 -39.9,1.85 -299.76,-312 -418.73,-679.46 -478.21,-1100.73 -1.4,-13.95 8.76,-26.39 22.71,-27.8 13.95,-1.4 26.4,8.76 27.8,22.71 z"
   id="path24" />
     </g>
     <path
   class="fil3"
   d="m 674.56,1128.3 c 40.45,401.91 249.5,879.55 471.98,1082.39"
   id="path28" />
     <g
   id="g32">
      <path
   class="fil4"
   d="m 687.23,1144.12 c -162.28,242.32 -185.49,431.95 -140.69,722.26 146.98,199.06 351.93,263.26 587.97,305.47 15.82,0.33 28.38,13.42 28.05,29.24 -0.33,15.82 -13.42,28.38 -29.25,28.05 L 950.39,2196.72 C 840.1,2164.28 538.45,2013.3 500.83,1883.95 425.09,1623.5 496.8,1328.47 653.77,1115.2 c 7.98,-9.24 21.95,-10.25 31.19,-2.26 9.24,7.98 10.25,21.95 2.27,31.19 z"
   id="path30" />
     </g>
     <path
   class="fil3"
   d="m 670.5,1129.66 c -168.23,194.6 -204.6,576.16 -146.67,746.46 81.58,152.3 393.78,319.87 610.08,324.37"
   id="path34" />
     <path
   class="fil4"
   d="m 661.82,1491.59 c -51.93,289.57 86.94,523.28 214.48,537.48 C 777.12,1862.72 690.19,1652.4 661.82,1491.59 Z"
   id="path36" />
    </g>
    <g
   id="g56">
     <g
   id="g52">
      <g
   id="g42">
       <path
   class="fil4"
   d="m 1391.94,387.31 c 119.71,223.57 442.39,1023.91 371.12,1254.13 -71.45,230.79 -212.77,393.79 -379.18,559.03 -15.38,13.65 -16.78,37.18 -3.14,52.56 13.65,15.38 37.18,16.78 52.56,3.14 197.36,-190.34 310.6,-321.04 386.28,-596.19 78.26,-284.55 -235.99,-1052.27 -384.14,-1306.51 -9.35,-12.02 -26.66,-14.18 -38.68,-4.83 -12.01,9.34 -14.18,26.66 -4.83,38.67 z"
   id="path40" />
      </g>
      <path
   class="fil3"
   d="m 1413.69,370.39 c 61.02,78.46 465.09,1013.7 377.63,1280.32 -86.6,263.98 -212.33,426.4 -382.73,577.61"
   id="path44" />
      <g
   id="g48">
       <path
   class="fil4"
   d="m 1435.45,387.31 c -121.01,223.12 -452.48,1023.49 -381.33,1254.13 70.8,229.48 213.63,394.64 379.18,559.03 15.38,13.65 16.78,37.18 3.14,52.56 -13.65,15.38 -37.18,16.78 -52.56,3.14 -196.94,-189.94 -311,-321.5 -386.28,-596.19 -78.14,-285.13 244.74,-1052.54 394.34,-1306.51 9.35,-12.02 26.66,-14.18 38.68,-4.83 12.01,9.34 14.18,26.66 4.83,38.67 z"
   id="path46" />
      </g>
      <path
   class="fil3"
   d="m 1413.69,370.39 c -61.02,78.46 -475.3,1013.7 -387.84,1280.32 86.6,263.98 212.33,426.4 382.73,577.61"
   id="path50" />
     </g>
     <path
   class="fil4"
   d="m 1412.24,901.19 c -54.94,316.73 -158.71,875.99 0,1085.78 138.97,-201.58 60.18,-767.8 0,-1085.78 z"
   id="path54" />
    </g>
    <g
   id="g72">
     <g
   id="g60">
      <path
   class="fil4"
   d="m 2117.67,1125.75 c -63.21,406.36 -185.6,755.32 -465.76,1064.06 -11.53,10.51 -12.35,28.38 -1.84,39.9 10.51,11.53 28.38,12.35 39.9,1.85 299.76,-312 418.73,-679.46 478.21,-1100.73 1.4,-13.95 -8.76,-26.39 -22.71,-27.8 -13.95,-1.4 -26.39,8.76 -27.8,22.71 z"
   id="path58" />
     </g>
     <path
   class="fil3"
   d="m 2142.93,1128.3 c -40.45,401.91 -249.51,879.55 -471.99,1082.39"
   id="path62" />
     <g
   id="g66">
      <path
   class="fil4"
   d="m 2130.27,1144.12 c 162.28,242.32 185.48,431.95 140.69,722.26 -146.98,199.06 -351.93,263.26 -587.97,305.47 -15.82,0.33 -28.38,13.42 -28.05,29.24 0.33,15.82 13.42,28.38 29.24,28.05 l 182.92,-32.42 c 110.29,-32.44 411.95,-183.42 449.56,-312.77 75.74,-260.45 4.03,-555.48 -152.94,-768.75 -7.98,-9.24 -21.95,-10.25 -31.19,-2.26 -9.24,7.98 -10.25,21.95 -2.26,31.19 z"
   id="path64" />
     </g>
     <path
   class="fil3"
   d="m 2146.99,1129.66 c 168.23,194.6 204.6,576.16 146.67,746.46 -81.58,152.3 -393.78,319.87 -610.08,324.37"
   id="path68" />
     <path
   class="fil4"
   d="m 2155.67,1491.59 c 51.93,289.57 -86.94,523.28 -214.48,537.48 99.18,-166.35 186.11,-376.67 214.48,-537.48 z"
   id="path70" />
    </g>
   </g>
  </g>
  
 </g>
</svg>
