<?xml version="1.0" encoding="UTF-8" standalone="no"?>
<!-- Creator: CorelDRAW -->

<svg
   xml:space="preserve"
   width="20.374283mm"
   height="20.238613mm"
   version="1.1"
   style="clip-rule:evenodd;fill-rule:evenodd;image-rendering:optimizeQuality;shape-rendering:geometricPrecision;text-rendering:geometricPrecision"
   viewBox="0 0 1407.0032 1397.632"
   id="svg297"
   sodipodi:docname="Simbolo.svg"
   inkscape:version="1.1.2 (b8e25be833, 2022-02-05)"
   xmlns:inkscape="http://www.inkscape.org/namespaces/inkscape"
   xmlns:sodipodi="http://sodipodi.sourceforge.net/DTD/sodipodi-0.dtd"
   xmlns="http://www.w3.org/2000/svg"
   xmlns:svg="http://www.w3.org/2000/svg"><sodipodi:namedview
   id="namedview299"
   pagecolor="#ffffff"
   bordercolor="#999999"
   borderopacity="1"
   inkscape:pageshadow="0"
   inkscape:pageopacity="0"
   inkscape:pagecheckerboard="0"
   inkscape:document-units="mm"
   showgrid="false"
   inkscape:zoom="4.4731943"
   inkscape:cx="40.127924"
   inkscape:cy="43.92834"
   inkscape:window-width="1920"
   inkscape:window-height="1001"
   inkscape:window-x="-9"
   inkscape:window-y="-9"
   inkscape:window-maximized="1"
   inkscape:current-layer="Capa_x0020_1" />
 <defs
   id="defs7">
  <style
   type="text/css"
   id="style2">
   <![CDATA[
    .fil1 {fill:none}
    .fil8 {fill:#6E6456}
    .fil17 {fill:#BEE9CC}
    .fil14 {fill:#C7EACD}
    .fil15 {fill:#D6EBCE}
    .fil10 {fill:#EADCC6}
    .fil18 {fill:#EBDDC4}
    .fil11 {fill:#EBDDC6}
    .fil16 {fill:#EDCBB3}
    .fil12 {fill:#F3DDBD}
    .fil6 {fill:#F47A40}
    .fil7 {fill:#F47C42}
    .fil13 {fill:#F4DEBE}
    .fil5 {fill:#FCD591}
    .fil4 {fill:#FCDCA1}
    .fil3 {fill:#FDE2AF}
    .fil2 {fill:#FDE9C1}
    .fil0 {fill:#FEF0D3}
    .fil9 {fill:#6E6456;fill-rule:nonzero}
   ]]>
  </style>
   <clipPath
   id="id0">
    <path
   d="M 21996.71,10838.79 H 730.43 V 863.51 h 21266.28 z"
   id="path4" />
   </clipPath>
 </defs>
 <g
   id="Capa_x0020_1"
   inkscape:label="Capa 1"
   inkscape:groupmode="layer"
   transform="translate(-10550.109,-5079.1769)">
  <metadata
   id="CorelCorpID_0Corel-Layer" />
  <g
   id="g10">
  </g>
  
  
  
  
  
  
  
  
  
 <g
   id="signo"
   transform="matrix(0.15561423,0,0,0.15561423,9485.278,4867.4706)"
   style="clip-rule:evenodd;fill-rule:evenodd;image-rendering:optimizeQuality;shape-rendering:geometricPrecision;text-rendering:geometricPrecision"><path
     class="fil6"
     d="m 8585.75,3167.06 c -66.52,76.42 -122.6,185.97 -207.03,160.57 -33.76,-88.53 33.28,-156.97 103,-239.9 63.71,-75.72 104.18,-124.66 171.9,-191.48 210.75,-207.92 751.58,-651.84 998.76,-608.74 24.45,147.5 -247.51,211.93 -352.83,292.69 -332.55,254.99 -395.17,220.45 -713.8,586.86 z"
     id="path23" /><path
     class="fil6"
     d="m 13724.19,3008.89 c 593.07,532.55 867.88,834.04 1124.99,1649.94 243.57,773.23 353.61,1729.81 -7.7,2484.63 -86.83,181.45 -116.74,329.8 -222.27,516.65 -89.52,158.55 -178.65,302.09 -290.68,446.13 -215.16,276.68 -474.74,523.75 -761.42,724.91 -645.88,453.13 -1478.53,717.11 -2268.16,692.9 C 10497,9495.54 9648.57,9227.07 9114.81,8743.43 8631.57,8305.6 8081.01,7645.71 7878.25,7019.92 7608.37,6187.08 7617.67,5324.03 7948.77,4508.69 8126.95,4069.96 8605.5,3378.08 9037.44,3019.23 c 203.17,-168.78 382.97,-306.66 741.46,-453.22 337.3,-146.93 708.61,-271.67 1068.71,-326.69 538.96,-82.42 1318.09,-21.31 1821.13,181.45 174.45,70.33 315.29,127.44 484.24,213.77 125.97,64.35 467.43,273.73 571.2,374.35 z m 1025.87,4011.63 c 16.4,34.21 -145.64,418.22 -176.45,480.94 -55.52,113.03 -181.06,363.41 -258.68,451.43 -226.17,256.78 -413.63,525.76 -704.81,717.72 -151.34,99.73 -267.78,193.86 -436.13,275.88 -287.18,139.84 -715.11,322 -1012.79,409.91 -165.15,48.82 -435.03,78.63 -607.18,74.93 55.11,-200.96 50.32,-239.47 126.63,-441.63 51.75,-148.99 192.16,-571.34 317.32,-972.64 51.23,-164.25 247.01,-865.61 349.18,-1006.94 80.02,-7.41 60.52,1.8 148.34,-13.91 116.78,-20.79 2247.52,18.04 2254.56,24.31 z m -2374.23,-117.17 c 115.47,-489.75 273.72,-909.18 417.26,-1386.37 71.63,23.52 103.92,63.02 169.14,104.23 205.06,129.97 1755.1,1219.38 1775.52,1272.17 -110.56,47.84 -2043.4,-3.93 -2361.93,9.97 z m -1749.97,98.17 c 259.47,824.45 532.55,1616.39 786.54,2443.57 -747.69,-48.79 -1105.91,-77.56 -1776.93,-460.79 -425.8,-204.82 -1376.98,-1274.27 -1567.06,-1735.41 -6.2,-15.01 -83.82,-239.07 -84.52,-243.07 66.99,-16.51 337.2,-5 433.23,1.3 699.53,0 1496.06,-51.92 2208.75,-5.6 z m -431.37,-1571.95 c 77.75,-52.5 75.06,-59.02 151.79,-110.34 227.7,-151.95 857.58,-664.87 1106.52,-788.43 416.03,320.83 841.55,615.07 1270.78,919.38 -142.41,466.4 -339.93,989.37 -465.44,1450.72 -186.86,7 -1390.7,14.42 -1567.67,-1.5 -144.79,-381.12 -349.26,-1071.43 -495.98,-1469.82 z m 393.91,1474.02 c -130.77,-12.52 -75.88,5.91 -170.41,9.11 -165.04,5.46 -1952.52,-1.18 -1959.77,-3.4 -86.11,-26.47 -206.43,23.26 -308.94,-4.81 212.29,-172.45 638.19,-460.28 910.16,-659.74 482.03,-353.53 1010.57,-739.75 1051.16,-742.3 117.05,358.32 417.83,1087.33 477.8,1401.14 z m 1312.69,1093.83 c -193.93,595.02 -425.97,1283.94 -426.19,1288.87 -12.44,-12.14 -606.09,-1853.63 -654.89,-2008.18 -10.9,-41.52 -99.84,-248.67 -100.53,-266.49 399.71,-17.96 1060.19,6.85 1488.84,1.91 -113.95,315.01 -201.99,661.02 -307.22,983.89 z M 10157.6,5263.69 c -106.92,-261.78 -569.9,-1656.49 -605.15,-1799.51 -17.71,-73.01 -119.34,-299.49 -105.23,-353 651.95,461.58 1273.36,874.88 1899.05,1353.99 -104.11,92.32 -1170.7,846.82 -1171.33,845.23 -0.69,-1.76 -1.1,-6.95 -17.34,-46.72 z m -98.55,141.46 c -32.05,36.93 -556.44,435.91 -1032.86,774.07 -174.18,123.63 -733,491.39 -923.27,643.24 -72.22,71.72 -65.12,63.82 -141.84,125.74 -88.42,-175.55 -102.23,-382.92 -151.94,-571.27 -48.82,-185.16 -37.91,-434.53 -39.72,-627.69 -3.09,-343.5 109.13,-817.84 230.67,-1139.83 138.44,-366.61 317.19,-589.88 550.66,-896.07 158.65,-207.86 485.04,-628.98 731.31,-687.5 64.47,53.29 789.26,2331.88 776.99,2379.3 z m 2686.59,-59.55 c -0.33,0.1 -108.88,-73.83 -114.43,-77.74 -355.49,-250.6 -746.53,-535.05 -1091.94,-798.4 5.16,-16.06 1639.67,-1205.13 1933.22,-1391.7 -75.31,321.3 -504.12,1526.55 -686.47,2145.46 -5.39,18.27 -36.32,121.22 -40.38,122.38 z m 277.72,200.59 c -47.29,-32.58 -174.77,-121.29 -194.85,-162.65 0.68,-25.09 561.87,-1710.22 627.58,-1935.66 10.42,-35.81 104.29,-354.57 117.53,-373.42 148.25,35.61 609.18,493.75 693.91,630.59 176.15,284.68 350.4,543.96 443.13,876.76 46.11,165.25 111.83,346.2 148.64,511.45 50.02,224.87 56.12,356.61 83.33,575.87 30.01,242.37 -0.9,953.38 -102.83,1169.54 C 14563.24,6722.68 13368.48,5783.61 13023.38,5546.2 Z M 9618.07,3096.67 c -56.52,-32.31 -158.95,-95.53 -162.55,-156.24 25.31,-153.94 716.61,-416.83 872.36,-450.53 634.99,-137.34 1640.38,-234.27 2248.76,21.81 85.62,36.11 411.31,162.74 462.63,198.75 66.02,46.21 362.61,213.86 397.01,255.58 -42.84,62.03 -1997.11,1443.84 -1999.48,1443.82 -243.34,-186.21 -1381.02,-1063.52 -1818.72,-1313.19 z"
     id="path25" /><path
     class="fil6"
     d="m 13881.72,2893.73 c 208.11,146.75 388.48,442.91 495.52,425.17 15.79,-119.08 -244.31,-358.27 -396.53,-508.83 -107.59,-106.41 -207.37,-182.55 -343.58,-265.76 -109.33,-66.52 -395.31,-242.97 -498.95,-213.66 -7.2,100.13 176.86,195.16 259.08,238.17 194.39,101.77 308.72,200.99 484.45,324.92 z"
     id="path27" /><path
     class="fil6"
     d="m 15081.96,7404.13 c 34.4,-66.61 130.64,-292.78 149.74,-354.3 155.35,-500.94 193.16,-1466.73 65.32,-1948.57 -52.32,-196.96 -109.04,-491.64 -186.46,-672.5 l -28.31,-81.03 c -8.7,-98.72 -162.15,-502.44 -277.28,-468.23 -37.11,88.12 35.91,178.25 85.72,283.48 57.92,122.34 126.74,316.19 163.85,446.63 226.16,796.83 295.08,1301.78 139.64,2138.12 -22.51,113.03 -196.46,506.95 -316.1,749.21 -70.02,141.94 -52.41,132.94 -25.01,164.15 69.12,49.91 77.12,28.41 228.87,-256.98 z"
     id="path29" /><path
     class="fil6"
     d="m 7971.88,3916.61 c -204.86,-59.42 -478.64,954.38 -481.14,1073.02 -149.65,716.51 -145.75,1371.1 68.22,2070.6 264.88,931.28 449.03,597.88 246.77,322 -163.54,-200.16 -314.89,-1040.2 -315.59,-1321.38 -0.8,-338.5 12,-698.91 90.22,-1029.4 35.61,-150.54 68.42,-292.18 122.63,-437.92 97.83,-309.9 283.09,-632.49 268.88,-676.9 z"
     id="path31" /><path
     class="fil6"
     d="m 8600.98,8529.38 c -61.81,-64.82 -284.48,-390.31 -363.2,-318.09 -153.15,140.35 1064.01,1253.17 1355.2,1127.93 11.6,-51.92 -32.31,-73.53 -87.23,-94.73 -153.74,-58.92 -413.52,-255.08 -529.76,-366.21 -127.04,-121.54 -249.87,-217.77 -375.01,-348.91 z"
     id="path33" /><path
     class="fil6"
     d="m 11093.85,9744.55 c -248.26,-16.43 -682.26,-155.01 -737.32,-122.36 1.64,135.48 607.48,218.12 812.19,223.92 145.26,4.12 343.52,-4.4 492.31,-15.47 270.01,-20.12 746.18,-88.11 749.79,-204.62 -59.3,-39.58 -431.96,64.32 -521.99,78.67 -208.51,33.27 -236.78,31.17 -422.14,40.42 -95.66,4.74 -275.37,5.88 -372.84,-0.56 z"
     id="path35" /><polygon
     class="fil6"
     points="11478.52,9413.95 11408.69,9747.99 11499.94,10185.14 11580.84,9748.32 "
     id="polygon37" /><path
     class="fil6"
     d="m 11115.59,1981.45 c 206.86,-18.4 789.23,24.51 990.29,69.62 240.07,53.81 367.5,-49.91 170.75,-88.63 -277.18,-89.73 -680.49,-120.44 -989.49,-116.13 -391.21,5.4 -840.45,79.72 -944.67,164.65 -223.46,186.75 690,-22.21 773.12,-29.51 z"
     id="path39" /><path
     class="fil6"
     d="m 14545.2,8226.87 c -104.83,-43.22 -177.06,158.14 -254.97,234.87 -357.5,352.2 -221.97,231.67 -622.09,527.75 -28.4,21.01 -157.04,112.83 -278.68,186.46 -114.53,69.22 -225.76,121.73 -197.75,150.84 53.02,55.82 330.7,-89.82 611.88,-301.69 395.42,-297.79 772.53,-692.01 741.62,-798.23 z"
     id="path41" /><path
     class="fil6"
     d="m 12084.56,10239.73 c 108.83,12.4 295.58,57.72 361.1,-60.42 -41.31,-51.12 -285.28,-47.82 -354.3,-33.01 -51.92,11 -64.62,52.91 -108.43,81.03 -43.61,27.8 -96.13,34.2 -145.15,47.81 91.23,80.53 191.26,86.63 246.78,-35.41 z"
     id="path43" /><path
     class="fil6"
     d="m 10056.48,2195.77 c 28.22,-99.57 -129.83,-174.32 -177.46,-42.8 -47.63,131.44 149.32,142.38 177.46,42.8 z"
     id="path45" /><path
     class="fil6"
     d="m 7844.19,8417.15 c -35.23,-53.7 -42.14,-35.07 -64.2,-107.92 -29.8,-98.55 -66.81,-257.88 -241.96,-243.42 27.48,125.62 92.25,100.93 133.21,232.68 25.98,83.63 65.68,212.39 172.95,118.67 z"
     id="path47" /><path
     class="fil6"
     d="m 13726.04,9617.99 c 117.74,-58.52 245.97,-50.61 324.9,-197.36 -85.93,3.2 -382.91,73.93 -403.52,173.05 -11.4,55.22 -2.1,117.23 28.61,159.35 58.02,-43.91 33.91,-76.12 50.01,-135.04 z"
     id="path49" /><path
     class="fil6"
     d="m 14772.18,2964.52 c 37.11,53.71 18.2,83.12 88.62,126.64 1.91,-118.43 -2.6,-217.77 -132.24,-245.78 -53.91,-11.7 -85.92,-29.31 -131.13,-61.92 -63.12,-45.61 -43.51,-52.62 -66.92,-102.63 -154.54,228.26 204.46,229.87 241.67,283.68 z"
     id="path51" /><path
     class="fil6"
     d="m 15426.39,4063.98 c -23.71,-31.21 -76.43,-63.62 -110.43,-89.53 1.5,58.62 14.5,101.43 61.52,138.34 95.73,75.32 33.21,25.1 76.52,126.53 38.61,90.62 36.71,57.21 43.11,166.65 3.6,62.52 17.6,110.73 87.52,94.82 42.91,-75.82 -15.21,-244.97 -75.42,-303.49 -59.22,-57.41 -40.71,-77.92 -82.82,-133.34 z"
     id="path53" /><path
     class="fil7"
     d="m 11445.47,1452.86 c 80.02,70 370.8,103.9 427.37,0 -42.37,-90.58 -367.82,-109.07 -427.37,0 z"
     id="path55" /><path
     class="fil6"
     d="m 10672.39,10094.39 c 186.86,263.97 43.82,192.35 377.91,145.54 50.12,38.31 77.22,97.73 158.85,98.13 -222.77,-243.77 -101.73,-159.94 -391.72,-122.24 -60.82,-81.52 -50.81,-72.72 -145.04,-121.43 z"
     id="path57" /><path
     class="fil6"
     d="m 14959.01,3111.44 c -77.16,92.59 -43.85,152.32 9.55,243.24 51.4,87.7 26.09,170.3 143.65,189.51 37.97,-114.57 -98.03,-327.28 -153.2,-432.75 z"
     id="path59" /><path
     class="fil6"
     d="m 6961.96,6561.8 c -2.9,155.04 15.61,387.11 202.66,417.92 -32.62,-97.93 -136.14,-352.61 -202.66,-417.92 z"
     id="path61" /><path
     class="fil6"
     d="m 12935.52,9522.35 c 55.11,-87.32 -109.44,-176.25 -176.55,-62.72 -42.42,86.83 92.23,172.85 176.55,62.72 z"
     id="path63" /><path
     class="fil6"
     d="m 8225.72,3615.83 c 46.44,-97.42 -84.22,-142.78 -132.43,-57.19 -64.87,115.31 90.74,144.63 132.43,57.19 z"
     id="path65" /><path
     class="fil6"
     d="m 7376.23,3953.62 -9.54,-5.89 c -11.95,5.59 -115.69,103.86 -133.42,122.76 -168.99,180.07 -41.59,219.22 -27.22,239.53 24.92,35.12 7.87,40.84 26.58,80.18 43.63,-41.84 48.06,-57.57 34.64,-116.1 -15.05,-66.61 -38.71,-18.2 14.35,-99.4 34.67,-53.2 89.22,-162.07 94.6,-221.08 z"
     id="path67" /><path
     class="fil6"
     d="m 14630.53,7958.35 c -7.91,73.94 55.11,87.61 117.87,66.89 44.96,-23.38 51.5,-102.56 17.02,-140.91 -50.63,-29.74 -128.79,-5.41 -134.89,74.02 z"
     id="path69" /><path
     class="fil6"
     d="m 15342.53,8021.22 c 55.85,-58.31 22.58,-73.21 27.15,-142.08 4.79,-74.1 148.86,-201.83 71.76,-394.08 -95.69,76.09 -76.22,176.23 -71.54,284.71 -64.42,66.64 -129.95,195.92 -27.37,251.45 z"
     id="path71" /><path
     class="fil6"
     d="m 8635.46,2397.81 c 117.54,34.81 130.84,-56.41 198.16,-103.83 79.02,-55.62 118.43,-6.71 197.16,-126.93 -82.92,4.4 -190.65,15.1 -252.88,71.42 -34.81,31.41 -36.11,54.11 -69.82,82.72 -35.81,30.31 -55.82,26.21 -72.63,76.62 z"
     id="path73" /><path
     class="fil6"
     d="m 14424.73,9044.3 c -81.22,-19.81 -105.13,-22.71 -137.04,61.12 -23.51,61.62 -69.42,94.43 -81.72,134.84 127.84,5.8 141.54,-37.21 184.36,-133.34 60.41,1.39 62.32,25.3 117.53,2.7 21.31,-54.62 4.5,-51.22 -24,-95.53 l -30.71,45.31 -28.41,-15.1 z"
     id="path75" /><path
     class="fil6"
     d="m 15555.71,7297.48 c -48.11,27.41 -81.32,38.61 -97.32,92.03 221.06,105.93 307.99,-213.06 97.43,-200.06 l -0.1,108.03 z"
     id="path77" /><path
     class="fil6"
     d="m 6994.31,5295.5 7.31,3.9 c 152.54,-96.13 1.7,-157.54 -41.01,-223.26 18.2,-64.62 42.61,-38.81 36.41,-96.63 -93.23,-25.91 -144.64,71.42 -107.33,145.14 48.82,96.73 116.63,30.71 104.63,170.85 z"
     id="path79" /><path
     class="fil6"
     d="m 14011.55,2375.56 c 53.62,-24.91 82.03,-85.22 53.32,-139.44 -41.32,-62.72 -270.48,-87.32 -302.79,-12.6 51.01,56.42 170.15,15.7 239.47,50.02 l 10,102.03 z"
     id="path81" /><path
     class="fil6"
     d="m 12767.12,2245.83 c 79.29,13.56 117.29,-19.47 121.84,-81.47 3.42,-47.1 -34.16,-110.14 -90.37,-97.61 -29.71,6.62 -62.73,25.36 -79.61,52.17 -29.4,57.35 -7.87,110.14 48.14,126.91 z"
     id="path83" /><path
     class="fil6"
     d="m 8794.49,9447.57 c -46.61,133.54 156.84,171.26 241.67,113.94 -9.9,-83.63 -180.25,-136.34 -241.67,-113.94 z"
     id="path85" /><path
     class="fil6"
     d="m 7361.91,7613.9 c 27.31,-70.83 -17.49,-98.04 -58.45,-154.12 -38.8,-53.06 -46.88,-103.61 -112.69,-98.75 -51.94,77.2 83.6,259.62 171.14,252.86 z"
     id="path87" /><path
     class="fil6"
     d="m 14770.22,8643.06 c 69.42,21 59.82,-0.4 107.63,-46.41 74.52,-71.72 175.45,-154.74 178.15,-279.88 -68.22,59.31 -6.3,93.83 -157.64,173.95 -65.82,34.71 -178.56,63.82 -128.14,152.35 z"
     id="path89" /><path
     class="fil6"
     d="m 7797.74,3189.35 c 136.04,-39.78 177.02,-119.01 268.78,-177.69 149.66,-95.93 77.9,-95.6 140.98,-194.05 24.61,-38.47 22.96,-11.43 51.75,-54.07 -74.94,-38.79 -94.17,26.48 -120.11,83.29 -46.26,100.87 -37.57,66.81 -115.6,121.87 -76.04,53.62 -165.16,187.46 -225.81,220.65 z"
     id="path91" /><path
     class="fil6"
     d="m 13615.57,2039.83 c -16.81,-115.53 -193.06,-116.74 -283.28,-105.93 43.81,99.13 181.25,152.95 283.28,105.93 z"
     id="path93" /><path
     class="fil6"
     d="m 15720.91,5759.34 c 36.01,76.22 23.8,221.26 97.33,262.67 122.74,-113.14 47.82,-228.67 -97.33,-262.67 z"
     id="path95" /><path
     class="fil6"
     d="m 9651.4,9922.11 c 80.42,61.23 127.11,131.86 242.9,109.2 -20.63,-93.24 -166.82,-119.21 -245.32,-156.33 -111.32,-52.65 -130.07,-137.39 -278.73,-13.16 105.69,46.73 167.62,-26.3 281.15,60.28 z"
     id="path97" /><path
     class="fil6"
     d="m 8346.08,2464.95 c 26.61,40.91 15.81,68.62 80.02,93.52 64.32,24.81 89.82,8.7 145.55,-15.41 -8.71,-112.13 -150.45,-146.54 -225.57,-78.12 z"
     id="path99" /><path
     class="fil6"
     d="m 12155.43,1574.7 c 58.02,-7.9 26.5,4.81 65.22,-33.81 53.02,72.52 103.33,109.13 194.66,71.23 -5.81,-14 -124.74,-157.64 -219.17,-154.54 l -40.71,117.13 z"
     id="path101" /><path
     class="fil6"
     d="m 7500.32,3748.08 c 100.73,15.67 136.66,-121.94 141.02,-206.41 6.48,-122.4 -54.67,-191.44 -178.6,-151.27 -3.06,99.08 38.76,68.92 118.88,80.11 24.74,175.77 -47.36,169.18 -81.29,277.56 z"
     id="path103" /><path
     class="fil6"
     d="m 11354.06,10245.36 c 70.22,74.32 226.07,139.24 315.39,60.92 -85.62,-84.22 -200.86,-68.52 -315.39,-60.92 z"
     id="path105" /><path
     class="fil6"
     d="m 14169.57,2488.61 c 60.22,102.03 132.54,101.53 244.07,92.23 -35.91,-115.44 -138.04,-146.04 -244.07,-92.23 z"
     id="path107" /><path
     class="fil6"
     d="m 9951.38,9429.95 c -106.53,-16.5 -127.74,101.43 -47.11,131.14 40.71,15.01 95.82,15.1 114.93,-34.31 18.8,-48.62 -10.6,-87.92 -67.82,-96.83 z"
     id="path109" /><path
     class="fil6"
     d="m 15700.22,6336.48 c 11.5,104.73 192.15,131.04 171.35,30.41 -12.1,-58.12 -185.55,-160.55 -171.35,-30.41 z"
     id="path111" /><path
     class="fil6"
     d="m 10256.73,10129.68 c 70.83,99.23 200.56,81.63 297.19,35.61 -84.53,-65.22 -197.26,-79.32 -297.19,-35.61 z"
     id="path113" /><path
     class="fil6"
     d="m 6959.66,5432.53 c -111.54,50.62 -49.02,212.97 69.52,222.07 1.8,-99.33 3.2,-150.95 -69.52,-222.07 z"
     id="path115" /><path
     class="fil6"
     d="m 12776.81,10003.35 c 95.93,30.61 234.97,77.52 312.89,-23.8 -90.52,-44.71 -231.56,-34.61 -312.89,23.8 z"
     id="path117" /><path
     class="fil6"
     d="m 13147.28,1755.72 c -43.15,-23.74 -94.83,-36.71 -148.07,-51.46 -43.92,-12.09 -132.87,-51.8 -119.9,23.29 16.53,96.27 187.78,119.01 267.97,28.17 z"
     id="path119" /><path
     class="fil6"
     d="m 15712.11,5111.34 c -62.82,80.02 3.5,206.46 124.73,177.05 12.71,-53.82 -67.41,-174.65 -124.73,-177.05 z"
     id="path121" /><path
     class="fil6"
     d="m 6843.47,6063.51 c 105.64,111.31 98.72,298.18 152.04,376.81 70.69,-55.25 36.88,-158.51 2.15,-228.51 -44.93,-90.78 -72.84,-95.65 -154.2,-148.3 z"
     id="path123" /><path
     class="fil6"
     d="m 15877.74,5636.36 c 14.61,-71.92 9,-102.93 -57.22,-134.34 l -99.93,127.74 49.91,46.61 107.23,-40.01 z"
     id="path125" /><path
     class="fil7"
     d="m 10953.58,1428.42 c 81.35,62.67 252.96,79.18 303.82,-30.61 -80.38,-71.83 -229.1,-28.09 -303.82,30.61 z"
     id="path127" /><path
     class="fil6"
     d="m 9209.76,2034.3 c 144.53,17.04 90.79,-19.21 185.13,-65.87 89.76,-44.25 90.67,-10.86 153.79,-107.03 -95.71,-1.37 -137.33,4 -210.97,65.4 -31.32,26.19 -114.35,80.62 -127.95,107.49 z"
     id="path129" /><path
     class="fil6"
     d="m 9726.22,1734.99 c 49.91,57.62 181.46,73.42 213.57,-12.7 -53.82,-74.53 -164.95,-48.31 -213.57,12.7 z"
     id="path131" /><path
     class="fil6"
     d="m 7969,7986.81 c 50.23,81.67 180.97,22.69 126.82,-75.45 -50.8,-92.03 -179.92,-10.59 -126.82,75.45 z"
     id="path133" /><path
     class="fil6"
     d="m 15703.25,6585.17 c -71.74,59.66 -87.53,188.13 18.29,231.78 43.44,-103.75 49.42,-136.84 -18.29,-231.78 z"
     id="path135" /><path
     class="fil6"
     d="m 9149.14,9640.39 -12.6,12.7 c 43.81,77.63 103.73,129.84 199.16,113.14 -20.1,-85.33 -107.73,-113.83 -186.55,-125.84 z"
     id="path137" /><path
     class="fil6"
     d="m 7046.12,5867.38 c -35.61,-58.92 -130.94,-129.34 -203.36,-88.73 17.01,95.13 120.14,89.93 203.36,88.73 z"
     id="path139" /><path
     class="fil6"
     d="m 10404.31,1614.73 c 192.82,-19.35 83.78,-123.41 258.52,-163.38 1.51,-0.35 -13.67,25.49 50.52,-20.97 -139.75,-7.19 -254.23,52.84 -309.04,184.36 z"
     id="path141" /><path
     class="fil6"
     d="m 14705.04,8885.49 c 26.61,-72.12 -57.42,-115.83 -121.04,-98.13 -11.6,82.12 42.01,127.94 121.04,98.13 z"
     id="path143" /><path
     class="fil6"
     d="m 12688.16,10039.31 c 13,70.22 76.42,96.63 141.94,106.23 -12.4,-70.92 -43.82,-120.84 -117.84,-127.24 l -32.01,-0.5 7.91,21.5 z"
     id="path145" /><path
     class="fil6"
     d="m 7402.68,7692.58 c -3.8,72.02 15.9,224.76 90.93,250.18 5.9,-101.03 -42.01,-167.85 -90.93,-250.18 z"
     id="path147" /><path
     class="fil6"
     d="m 8227.81,8907.06 c -34.29,84.47 -35.14,199 86.05,184.09 18.18,-97.68 -20.97,-129.31 -86.05,-184.09 z"
     id="path149" /><path
     class="fil6"
     d="m 15721.08,4743.24 c -19.51,-90.02 -77.12,-104.33 -140.54,-167.75 -7,89.33 56.32,153.45 140.54,167.75 z"
     id="path151" /><path
     class="fil6"
     d="m 7088,4825.76 c 43.71,-89.26 -16.64,-176.97 -118.6,-155.82 -11.56,84.89 23.98,187.69 118.6,155.82 z"
     id="path153" /><path
     class="fil6"
     d="m 15090.85,8200.32 c 150.03,17.13 158.53,-90.4 152.73,-208.59 -104.56,112.12 -79.46,72.18 -152.73,208.59 z"
     id="path155" /><path
     class="fil6"
     d="m 8608.55,9289.97 c 25.11,0.8 21.81,8.5 20.41,-11.91 -48.21,-102.13 -95.62,-83.12 -164.14,-143.84 l -3.2,13 c 63.22,88.53 53.51,84.13 146.94,142.74 z"
     id="path157" /><path
     class="fil6"
     d="m 8023.35,8767.72 c -34.42,1.22 -29.09,-9.21 -27.27,20.12 45.81,75.14 70.41,73.08 156.46,63.99 -29.69,-66.05 -56.83,-73.08 -129.19,-84.11 z"
     id="path159" /><path
     class="fil6"
     d="m 15304.48,3776.95 c -26.77,-99.45 -34.08,-124.75 -140.11,-139.09 -6.14,117.74 31.44,131.92 140.11,139.09 z"
     id="path161" /><path
     class="fil6"
     d="m 13263.74,9894.02 c 24.41,-63.22 -15,-69.62 -76.02,-61.72 12.91,55.92 10.2,89.73 76.02,61.72 z"
     id="path163" /><path
     class="fil6"
     d="m 7096.16,7177.64 c -7.7,65.82 82.83,50.72 69.52,-7.71 -9.4,-43.41 -64.42,-35.81 -69.52,7.71 z"
     id="path165" /><path
     class="fil6"
     d="m 12602.45,1688.42 c -30.31,-66.52 -14.7,-93.52 -88.83,-116.74 6.1,69.22 29.51,90.63 88.83,116.74 z"
     id="path167" /><path
     class="fil6"
     d="m 6928.68,6006.25 83.51,104.5 c 45.61,-72.39 4.31,-126.73 -83.51,-104.5 z"
     id="path169" /><path
     class="fil6"
     d="m 10036.21,10012.96 c -42.21,-21.7 -75.92,40.52 -43.51,64.22 54.12,39.71 89.73,-40.41 43.51,-64.22 z"
     id="path171" /><path
     class="fil6"
     d="m 12831.78,1753.67 c 27.17,-52.13 38.6,-89.84 0,-131.77 -37.27,42.71 -32.17,86.18 0,131.77 z"
     id="path173" /><path
     class="fil6"
     d="m 7966.81,8584.86 c -19.1,-26.71 -69.92,2 -51.01,34.51 23.4,40.41 78.42,3.6 51.01,-34.51 z"
     id="path175" /><path
     class="fil6"
     d="m 13457.37,9821.15 c 48.02,-26.9 5.6,-80.12 -28.31,-55.82 -38.42,27.21 -15.31,80.22 28.31,55.82 z"
     id="path177" /><path
     class="fil6"
     d="m 7447.11,3654.95 c 7.9,-132.29 -11.84,-166.51 -50.2,-118.01 -1.37,132.56 7.98,171.64 50.2,118.01 z"
     id="path179" /><path
     class="fil6"
     d="m 14541.65,3576.33 c 0,118.27 114.57,125.06 152.53,55.19 56.41,-103.81 -132.68,-169.28 -152.53,-55.19 z"
     id="path181" /><path
     class="fil6"
     d="m 7156.57,4502.75 c -40.33,-38.08 -86.45,20.02 -60.21,47.8 34.54,36.52 95.47,-14.52 60.21,-47.8 z"
     id="path183" /><path
     class="fil6"
     d="m 15777.19,6257.77 c 15.81,-43.22 8.4,-57.52 -33.41,-70.82 -10.6,52.21 -11.8,58.22 33.41,70.82 z"
     id="path185" /><polygon
     class="fil6"
     points="8482.23,7867.66 8452.52,7838.75 "
     id="polygon187" /><polygon
     class="fil6"
     points="7993.42,6969.4 7653.82,7003.14 7264.28,7221.5 7705.23,7167.44 "
     id="polygon189" /><polygon
     class="fil6"
     points="14777.65,6915.03 15065.73,7097.99 15507.01,7166.46 15126.64,6936.97 "
     id="polygon191" /><polygon
     class="fil6"
     points="13495.9,3018.49 13773.06,2819.38 14001.09,2435.42 13646.35,2702.84 "
     id="polygon193" /><polygon
     class="fil6"
     points="9363.31,2919.5 9086.16,2720.38 8858.12,2336.44 9212.86,2603.85 "
     id="polygon195" /><path
     class="fil6"
     d="m 7759.21,3283.91 c -40.33,-38.07 -86.44,20.03 -60.21,47.8 34.55,36.52 95.47,-14.52 60.21,-47.8 z"
     id="path197" /><path
     class="fil6"
     d="m 10202.68,1581.32 c -40.33,-38.07 -86.44,20.03 -60.21,47.8 34.55,36.52 95.47,-14.52 60.21,-47.8 z"
     id="path199" /><path
     class="fil6"
     d="m 15629.31,4792.86 c -46.61,133.54 156.84,171.25 241.67,113.93 -9.9,-83.62 -180.25,-136.34 -241.67,-113.93 z"
     id="path201" /><path
     class="fil6"
     d="m 15626.85,6989.75 c -4.12,38.49 28.69,45.61 61.35,34.82 23.41,-12.17 26.81,-53.39 8.86,-73.35 -26.36,-15.48 -67.03,-2.82 -70.21,38.53 z"
     id="path203" /></g></g>
</svg>
